<svg width="80" height="80" viewBox="0 0 80 80" fill="none" xmlns="http://www.w3.org/2000/svg">
<path d="M24.3545 55.7322L24.3086 55.6864C23.697 55.0778 22.7078 55.08 22.0989 55.6917C21.4902 56.3034 21.4925 57.2927 22.1042 57.9014L22.1553 57.9522C22.46 58.2541 22.8575 58.4047 23.2549 58.4047C23.6572 58.4047 24.0595 58.2502 24.365 57.9419C24.9724 57.3288 24.9677 56.3395 24.3545 55.7322Z" fill="#EE3425"/>
<path d="M57.8989 22.1014C48.0295 12.232 31.9708 12.232 22.1014 22.1014C14.022 30.1808 12.3569 42.7311 18.0519 52.6214C18.4825 53.3692 19.438 53.6263 20.1856 53.1958C20.9334 52.7652 21.1906 51.8098 20.76 51.062C15.7686 42.3938 17.2289 31.3934 24.3111 24.3111C32.962 15.6602 47.0383 15.6602 55.6891 24.3111C64.34 32.962 64.34 47.0381 55.6891 55.6891C48.5638 62.8144 37.5175 64.248 28.8267 59.1755C28.0813 58.7403 27.1245 58.9919 26.6895 59.7373C26.2545 60.4827 26.5061 61.4395 27.2514 61.8745C31.2169 64.1891 35.6113 65.3163 39.9781 65.3163C46.5309 65.3163 53.021 62.7767 57.8989 57.8988C67.7681 48.0294 67.7681 31.9708 57.8989 22.1014Z" fill="#EE3425"/>
<path d="M79.9945 33.1347C79.9942 32.3664 79.4353 31.7122 78.6766 31.592L72.9089 30.6781L69.8491 23.2989L73.2777 18.5717C73.7288 17.9498 73.6608 17.0922 73.1173 16.5492L63.4266 6.865C62.883 6.32188 62.0253 6.25437 61.4038 6.70609L56.6811 10.1369L49.2967 7.08141L48.3789 1.31672C48.258 0.558281 47.6039 0 46.8358 0C46.8356 0 46.8353 0 46.8352 0L33.1347 0.005625C32.3664 0.0059375 31.7123 0.564844 31.592 1.32359L30.6783 7.09125L23.2991 10.1511L18.5719 6.7225C17.9502 6.27141 17.0925 6.33938 16.5494 6.88281L6.86516 16.5736C6.32203 17.1172 6.25469 17.9748 6.70625 18.5964L10.137 23.3191L7.08156 30.7034L1.31688 31.6213C0.558125 31.742 -0.000312369 32.3966 1.3109e-07 33.1648L0.00562513 46.8652C0.00593763 47.6334 0.564844 48.2877 1.32359 48.4078L7.09125 49.3217L10.1511 56.7009L6.7225 61.4281C6.27141 62.05 6.33938 62.9077 6.88281 63.4506L16.5736 73.1348C17.1172 73.678 17.975 73.7455 18.5964 73.2937L23.3191 69.863L30.7034 72.9184L31.6213 78.6831C31.742 79.4417 32.3961 80 33.1642 80C33.1644 80 33.1647 80 33.1648 80L46.8652 79.9942C47.6334 79.9939 48.2875 79.435 48.4078 78.6763L49.3217 72.9086L56.7009 69.8488L61.4281 73.2773C62.05 73.7286 62.9077 73.6605 63.4506 73.117L73.1348 63.4263C73.678 62.8827 73.7453 62.025 73.2937 61.4034L69.863 56.6808L72.9184 49.2964L78.6831 48.3786C79.4419 48.2578 80.0003 47.6033 80 46.835L79.9945 33.1347ZM71.5636 46.3478C71.0269 46.4333 70.5733 46.7913 70.3655 47.2934L66.6413 56.2941C66.4334 56.7961 66.5016 57.3702 66.8209 57.8098L69.9817 62.1608L62.1833 69.9645L57.8278 66.8056C57.3881 66.4866 56.8141 66.4192 56.3119 66.627L47.3169 70.357C46.815 70.5652 46.4572 71.0191 46.3722 71.5558L45.5302 76.8697L34.4978 76.8744L33.6522 71.5634C33.5667 71.0267 33.2088 70.5731 32.7066 70.3653L23.7059 66.6411C23.5136 66.5614 23.3106 66.5223 23.1087 66.5223C22.7837 66.5223 22.4614 66.6237 22.1903 66.8208L17.8394 69.9816L10.0356 62.1831L13.1945 57.8277C13.5136 57.3878 13.5811 56.8137 13.373 56.3117L9.64312 47.3167C9.435 46.8148 8.98109 46.457 8.44438 46.372L3.13031 45.53L3.12578 34.4977L8.43672 33.652C8.97344 33.5666 9.42703 33.2086 9.63484 32.7064L13.3591 23.7058C13.5669 23.2037 13.4987 22.6297 13.1794 22.19L10.0186 17.8391L17.817 10.0353L22.1725 13.1942C22.6125 13.5133 23.1864 13.5811 23.6884 13.3728L32.6834 9.64281C33.1853 9.43469 33.5431 8.98063 33.6281 8.44406L34.47 3.13L45.5025 3.12547L46.3481 8.43641C46.4336 8.97313 46.7916 9.42672 47.2937 9.63453L56.2944 13.3588C56.7964 13.5663 57.3705 13.4984 57.8102 13.1791L62.1611 10.0183L69.9648 17.8167L66.8059 22.1722C66.4869 22.612 66.4194 23.1861 66.6275 23.6881L70.3573 32.6831C70.5655 33.185 71.0194 33.5428 71.5561 33.6278L76.8702 34.4698L76.8747 45.5022L71.5636 46.3478Z" fill="#EE3425"/>
<path d="M54.2347 41.9466C52.2805 40.1711 49.6542 39.4 47.0617 39.8034L40.1997 32.9414C40.617 30.2233 39.7206 27.4261 37.7558 25.4611C35.2923 22.9977 31.6092 22.2431 28.3726 23.5386C27.885 23.7337 27.5281 24.1608 27.4226 24.6752C27.317 25.1895 27.477 25.7227 27.8484 26.0941L30.114 28.3597C30.5936 28.8392 30.5936 29.6195 30.114 30.0992C29.6345 30.5789 28.8542 30.5789 28.3745 30.0992L26.1011 27.8256C25.7305 27.455 25.1992 27.2947 24.6853 27.3992C24.1717 27.5034 23.7445 27.8583 23.548 28.3441C22.1856 31.7084 23.077 35.6101 25.7659 38.0531C27.7222 39.8308 30.3505 40.6017 32.9458 40.1955L39.8015 47.0514C39.3815 49.7717 40.2775 52.5715 42.2445 54.5387C43.909 56.2033 46.1269 57.0873 48.3887 57.0872C49.4858 57.0872 50.5936 56.879 51.653 56.4511C52.139 56.2548 52.4944 55.8276 52.5989 55.3139C52.7034 54.8001 52.5434 54.2683 52.1726 53.8975L49.9173 51.642C49.4378 51.1625 49.4378 50.3822 49.9173 49.9025C50.3969 49.4228 51.1772 49.4228 51.6569 49.9025L53.9076 52.1533C54.2787 52.5244 54.8115 52.6847 55.3259 52.5792C55.8403 52.4739 56.2672 52.1175 56.4626 51.6303C57.8098 48.2728 56.9145 44.3812 54.2347 41.9466ZM53.8664 47.693C52.1683 45.995 49.4053 45.9948 47.7073 47.693C46.0094 49.3911 46.0094 52.1539 47.7073 53.8519L47.7836 53.9283C46.5498 53.793 45.3708 53.2458 44.4541 52.3291C43.0523 50.9273 42.4997 48.8647 43.012 46.9459C43.1559 46.407 43.0017 45.8325 42.6073 45.4381L34.5586 37.3894C34.2617 37.0925 33.8626 36.9317 33.4536 36.9317C33.3201 36.9317 33.1855 36.9487 33.0531 36.9839C31.2026 37.4753 29.2639 37.01 27.8669 35.7406C26.8408 34.808 26.2228 33.5442 26.0748 32.2192L26.1647 32.3091C27.8628 34.007 30.6256 34.0072 32.3237 32.3091C34.0217 30.6109 34.0217 27.8481 32.3237 26.1501L32.2498 26.0762C33.4717 26.2178 34.6384 26.7633 35.5459 27.6711C36.9461 29.0712 37.499 31.132 36.9892 33.0492C36.8459 33.5876 37.0003 34.1617 37.3944 34.5558L45.4478 42.6092C45.8412 43.0025 46.4137 43.1572 46.9519 43.015C48.8005 42.5266 50.7375 42.9919 52.1331 44.2597C53.1498 45.1834 53.7661 46.4342 53.9208 47.7473L53.8664 47.693Z" fill="#EE3425"/>
<path d="M54.2724 28.8421C51.6972 25.5525 48.0466 23.2386 43.9927 22.3264C43.1511 22.1369 42.3147 22.6658 42.1253 23.5078C41.9359 24.3499 42.4647 25.1858 43.3067 25.3752C46.6594 26.1295 49.6799 28.0449 51.8117 30.7685C52.12 31.1622 52.5792 31.3678 53.0431 31.3678C53.38 31.3678 53.7194 31.2594 54.0052 31.0356C54.6847 30.5038 54.8044 29.5216 54.2724 28.8421Z" fill="#EE3425"/>
<path d="M57.2575 34.4764L57.2347 34.4058C56.9695 33.5846 56.0891 33.1342 55.2676 33.3991C54.4464 33.6642 53.9956 34.5449 54.2609 35.3661L54.2808 35.4274C54.4928 36.0913 55.1073 36.5149 55.7687 36.5149C55.9262 36.5149 56.0866 36.4908 56.2445 36.4403C57.0666 36.1777 57.5201 35.2985 57.2575 34.4764Z" fill="#EE3425"/>
</svg>
