<svg width="80" height="80" viewBox="0 0 80 80" fill="none" xmlns="http://www.w3.org/2000/svg">
<path d="M22.8387 4.21875H5.39062C4.74365 4.21875 4.21875 4.74304 4.21875 5.39062V18.3594C4.21875 19.007 4.74365 19.5312 5.39062 19.5312H22.8387C23.4857 19.5312 24.0106 19.007 24.0106 18.3594V5.39062C24.0106 4.74304 23.4857 4.21875 22.8387 4.21875ZM21.6669 17.1875H6.5625V6.5625H21.6669V17.1875Z" fill="#EE3425"/>
<path d="M78.8281 0H1.17188C0.524902 0 0 0.524292 0 1.17188V22.5781C0 23.2257 0.524902 23.75 1.17188 23.75H65C65.647 23.75 66.1719 23.2257 66.1719 22.5781C66.1719 21.9305 65.647 21.4062 65 21.4062H54.1144V2.34375H77.6562V21.4062H70.0195C69.3726 21.4062 68.8477 21.9305 68.8477 22.5781C68.8477 23.2257 69.3726 23.75 70.0195 23.75H78.8281C79.4751 23.75 80 23.2257 80 22.5781V1.17188C80 0.524292 79.4751 0 78.8281 0ZM2.34375 2.34375H25.8856V21.4062H2.34375V2.34375ZM28.2294 2.34375H51.7712V21.4062H28.2294V2.34375Z" fill="#EE3425"/>
<path d="M75.7812 18.3594V5.39062C75.7812 4.74304 75.2563 4.21875 74.6094 4.21875H57.1613C56.5143 4.21875 55.9894 4.74304 55.9894 5.39062V18.3594C55.9894 19.007 56.5143 19.5312 57.1613 19.5312H74.6094C75.2563 19.5312 75.7812 19.007 75.7812 18.3594ZM73.4375 17.1875H58.3331V6.5625H73.4375V17.1875Z" fill="#EE3425"/>
<path d="M48.7238 4.21875H31.2762C30.6287 4.21875 30.1044 4.74304 30.1044 5.39062V18.3594C30.1044 19.007 30.6287 19.5312 31.2762 19.5312H48.7244C49.3713 19.5312 49.8962 19.007 49.8962 18.3594V5.39062C49.8956 4.74304 49.3713 4.21875 48.7238 4.21875ZM47.5519 17.1875H32.4475V6.5625H47.5519V17.1875Z" fill="#EE3425"/>
<path d="M78.8281 39.0625H1.17188C0.524902 39.0625 0 39.5868 0 40.2344V49.9738C0 50.6213 0.524902 51.1456 1.17188 51.1456C1.81885 51.1456 2.34375 50.6213 2.34375 49.9738V46.0938H77.6562V77.6562H2.34375V54.9738C2.34375 54.3268 1.81885 53.8019 1.17188 53.8019C0.524902 53.8019 0 54.3268 0 54.9738V78.8281C0 79.4757 0.524902 80 1.17188 80H78.8281C79.4751 80 80 79.4757 80 78.8281V40.2344C80 39.5868 79.4751 39.0625 78.8281 39.0625ZM2.34375 43.75V41.4062H77.6562V43.75H2.34375Z" fill="#EE3425"/>
<path d="M37.6562 75.3125C38.3032 75.3125 38.8281 74.7882 38.8281 74.1406V49.6094C38.8281 48.9618 38.3032 48.4375 37.6562 48.4375H5.85938C5.2124 48.4375 4.6875 48.9618 4.6875 49.6094V74.1406C4.6875 74.7882 5.2124 75.3125 5.85938 75.3125H37.6562ZM7.03125 50.7812H36.4844V72.9688H7.03125V50.7812Z" fill="#EE3425"/>
<path d="M32.9688 53.125H10.5469C9.8999 53.125 9.375 53.6493 9.375 54.2969V69.4531C9.375 70.1007 9.8999 70.625 10.5469 70.625H32.9688C33.6157 70.625 34.1406 70.1007 34.1406 69.4531V54.2969C34.1406 53.6493 33.6157 53.125 32.9688 53.125ZM31.7969 68.2812H11.7188V55.4688H31.7969V68.2812Z" fill="#EE3425"/>
<path d="M70 75.3125H74.1406C74.7876 75.3125 75.3125 74.7882 75.3125 74.1406V49.6094C75.3125 48.9618 74.7876 48.4375 74.1406 48.4375H42.3438C41.6968 48.4375 41.1719 48.9618 41.1719 49.6094V74.1406C41.1719 74.7882 41.6968 75.3125 42.3438 75.3125H65C65.647 75.3125 66.1719 74.7882 66.1719 74.1406C66.1719 73.493 65.647 72.9688 65 72.9688H43.5156V50.7812H72.9688V72.9688H70C69.353 72.9688 68.8281 73.493 68.8281 74.1406C68.8281 74.7882 69.353 75.3125 70 75.3125Z" fill="#EE3425"/>
<path d="M70.625 69.4531V54.2969C70.625 53.6493 70.1001 53.125 69.4531 53.125H47.0312C46.3843 53.125 45.8594 53.6493 45.8594 54.2969V69.4531C45.8594 70.1007 46.3843 70.625 47.0312 70.625H69.4531C70.1001 70.625 70.625 70.1007 70.625 69.4531ZM68.2812 68.2812H48.2031V55.4688H68.2812V68.2812Z" fill="#EE3425"/>
<path d="M27.5781 64.6094C28.2251 64.6094 28.75 64.0851 28.75 63.4375V60.3125C28.75 59.6649 28.2251 59.1406 27.5781 59.1406C26.9312 59.1406 26.4062 59.6649 26.4062 60.3125V63.4375C26.4062 64.0851 26.9312 64.6094 27.5781 64.6094Z" fill="#EE3425"/>
<path d="M52.4219 64.6094C53.0688 64.6094 53.5938 64.0851 53.5938 63.4375V60.3125C53.5938 59.6649 53.0688 59.1406 52.4219 59.1406C51.7749 59.1406 51.25 59.6649 51.25 60.3125V63.4375C51.25 64.0851 51.7749 64.6094 52.4219 64.6094Z" fill="#EE3425"/>
</svg>
