<svg width="80" height="80" fill="none" xmlns="http://www.w3.org/2000/svg"><path d="M79.995 33.135c0-.769-.56-1.423-1.318-1.543l-5.768-.914-3.06-7.38 3.429-4.726a1.562 1.562 0 0 0-.16-2.023l-9.691-9.684a1.562 1.562 0 0 0-2.023-.159l-4.723 3.43-7.384-3.055-.918-5.764A1.563 1.563 0 0 0 46.836 0L33.135.006c-.769 0-1.423.559-1.543 1.318l-.914 5.767-7.379 3.06-4.727-3.428a1.562 1.562 0 0 0-2.023.16l-9.684 9.69a1.563 1.563 0 0 0-.159 2.023l3.431 4.723-3.055 7.384-5.765.918A1.562 1.562 0 0 0 0 33.165l.006 13.7c0 .768.559 1.423 1.318 1.543l5.767.914 3.06 7.379-3.428 4.727a1.562 1.562 0 0 0 .16 2.023l9.69 9.684c.544.543 1.402.61 2.023.159l4.723-3.431 7.384 3.055.918 5.765c.121.759.775 1.317 1.543 1.317l13.701-.006c.768 0 1.422-.559 1.543-1.318l.914-5.767 7.379-3.06 4.727 3.428c.622.452 1.48.383 2.023-.16l9.684-9.69c.543-.544.61-1.402.159-2.024l-3.431-4.722 3.055-7.385 5.765-.917A1.562 1.562 0 0 0 80 46.835l-.005-13.7z" fill="#EE3425"/><circle cx="40" cy="40" r="25" fill="#fff"/><path d="M49.72 43.764l-.378-.038a5.57 5.57 0 0 0-1.942.365L35.87 32.56a5.572 5.572 0 0 0 .366-1.942l-.038-.378C36 27.316 33.592 25 30.618 25c-.865 0-1.676.212-2.408.562l3.732 3.732c.196.197.331.429.421.674a1.87 1.87 0 0 1-.421 1.974 1.868 1.868 0 0 1-1.324.548c-.221 0-.44-.048-.65-.127a1.863 1.863 0 0 1-.674-.423l-3.732-3.73A5.558 5.558 0 0 0 25 30.618c0 2.974 2.316 5.382 5.24 5.58l.378.038c.685 0 1.335-.14 1.942-.364l11.527 11.53a5.656 5.656 0 0 0-.36 1.942l.038.378c.195 2.925 2.605 5.24 5.579 5.24a5.5 5.5 0 0 0 2.408-.562l-3.732-3.732a1.912 1.912 0 0 1-.425-.672 1.867 1.867 0 0 1 1.749-2.525c.22 0 .438.047.651.128.246.092.48.223.673.421l3.732 3.732a5.54 5.54 0 0 0 .562-2.408c-.002-2.974-2.319-5.382-5.242-5.58z" fill="#EE3425"/></svg>