<svg width="80" height="78" viewBox="0 0 80 78" fill="none" xmlns="http://www.w3.org/2000/svg">
<path d="M73.527 56.787C73.2222 55.9613 72.306 55.5389 71.4802 55.8436L54.9064 61.9591C54.0806 62.2638 53.6583 63.1802 53.963 64.0059C54.2006 64.6497 54.8099 65.0483 55.4583 65.0483C55.6414 65.0483 55.8278 65.0164 56.0099 64.9494L72.5836 58.8339C73.4094 58.5292 73.8317 57.6128 73.527 56.787Z" fill="#EE3425"/>
<path d="M52.3964 64.5841C52.0919 63.7581 51.1753 63.3358 50.3496 63.6405L49.6477 63.8994C48.8221 64.2041 48.3996 65.1205 48.7042 65.9461C48.9417 66.5898 49.5511 66.9886 50.1996 66.9886C50.3827 66.9886 50.5691 66.9567 50.7511 66.8897L51.453 66.6308C52.2786 66.3261 52.7011 65.4099 52.3964 64.5841Z" fill="#EE3425"/>
<path d="M73.527 50.2931C73.2222 49.4674 72.3059 49.0453 71.4802 49.3497L58.3825 54.1825C57.5567 54.4872 57.1344 55.4036 57.4391 56.2294C57.6767 56.8731 58.2859 57.2717 58.9344 57.2717C59.1175 57.2717 59.3039 57.2399 59.4859 57.1728L72.5836 52.34C73.4094 52.0353 73.8317 51.1189 73.527 50.2931Z" fill="#EE3425"/>
<path d="M73.527 43.8667C73.2222 43.0409 72.3059 42.6189 71.4802 42.9233L58.3825 47.7561C57.5567 48.0608 57.1344 48.9772 57.4391 49.803C57.6767 50.4467 58.2859 50.8453 58.9344 50.8453C59.1175 50.8453 59.3039 50.8134 59.4859 50.7464L72.5836 45.9136C73.4094 45.6089 73.8317 44.6925 73.527 43.8667Z" fill="#EE3425"/>
<path d="M78.9581 14.7075L40.5517 0.536243C40.1956 0.404993 39.8044 0.404993 39.4484 0.536243L1.04203 14.7075L1.04172 14.7087C0.915937 14.7553 0.795 14.8169 0.6825 14.8951C0.254844 15.1933 0 15.6816 0 16.2027V61.7973C0 62.4647 0.415781 63.0614 1.04188 63.2925L39.4483 77.4638C39.6273 77.5298 39.8141 77.5622 39.9998 77.5622C40.1875 77.5622 40.3742 77.5281 40.5511 77.4628L40.5517 77.4638L78.9581 63.2925C79.5842 63.0614 80 62.4648 80 61.7973V16.2027C80 15.5351 79.5842 14.9386 78.9581 14.7075ZM38.4064 73.682L3.18719 60.6867V18.4894L10.3584 21.1356V40.4447C10.3584 41.112 10.7742 41.7087 11.4003 41.9398L28.6114 48.2906C28.7905 48.3567 28.9772 48.3891 29.163 48.3891C29.4845 48.3891 29.8033 48.2917 30.0744 48.1028C30.5019 47.8048 30.7567 47.3166 30.7567 46.7955V28.6622L38.4061 31.4847V73.682H38.4064ZM27.5697 27.4861V44.5084L13.5458 39.3337V22.3114L27.5697 27.4861ZM16.5558 20.012L29.1633 15.36L41.7708 20.012L29.1633 24.6641L16.5558 20.012ZM40 28.6753L33.7498 26.3691L46.9263 21.507C47.5523 21.2759 47.9681 20.6794 47.9681 20.0119C47.9681 19.3444 47.5523 18.7478 46.9263 18.5167L29.715 12.1661C29.3589 12.0348 28.9678 12.0348 28.6116 12.1661L11.9348 18.3198L6.19734 16.2027L40 3.73015L73.8027 16.2028L40 28.6753ZM76.8128 60.6867L41.5938 73.6819V31.4847L76.8128 18.4894V60.6867Z" fill="#EE3425"/>
</svg>
