<svg width="80" height="56" viewBox="0 0 80 56" fill="none" xmlns="http://www.w3.org/2000/svg">
<path d="M14.6667 40C15.4027 40 16 39.4027 16 38.6667V29.3334C16 27.1281 14.2053 25.3334 12 25.3334C9.79469 25.3334 8 27.1281 8 29.3334V38.6667C8 39.4027 8.59734 40 9.33328 40C10.0692 40 10.6666 39.4027 10.6666 38.6667V29.3334C10.6666 28.5987 11.2652 28.0002 11.9998 28.0002C12.7345 28.0002 13.3331 28.5987 13.3331 29.3334V38.6667C13.3333 39.4027 13.9306 40 14.6667 40Z" fill="#EE3425"/>
<path d="M9.33328 16C10.0692 16 10.6666 15.4027 10.6666 14.6667V10.6667C10.6666 9.93078 10.0692 9.33344 9.33328 9.33344C8.59734 9.33344 8 9.93078 8 10.6667V14.6667C8 15.4027 8.59734 16 9.33328 16Z" fill="#EE3425"/>
<path d="M25.3333 38.6667C26.0692 38.6667 26.6666 38.0694 26.6666 37.3334V28C26.6666 25.7947 24.8719 24 22.6666 24C20.4613 24 18.6666 25.7947 18.6666 28V37.3333C18.6666 38.0692 19.2639 38.6666 19.9998 38.6666C20.7358 38.6666 21.3331 38.0692 21.3331 37.3333V28C21.3331 27.2653 21.9317 26.6667 22.6664 26.6667C23.4011 26.6667 23.9997 27.2653 23.9997 28V37.3333C24 38.0694 24.5973 38.6667 25.3333 38.6667Z" fill="#EE3425"/>
<path d="M9.07203 18.6933C8.34938 18.8373 7.88141 19.5386 8.02672 20.2612C8.16938 20.9827 8.87344 21.4506 9.59469 21.3066C9.72672 21.2812 22.9947 18.6666 38.6667 18.6666H43.1761L44.1402 20.5959C44.2695 20.8545 44.4788 21.0639 44.7375 21.1933L46.4469 22.048L46.1375 23.2866C45.5189 22.8933 44.7855 22.6666 44.0002 22.6666C41.7949 22.6666 40.0002 24.4612 40.0002 26.6666V36C40.0002 36.7359 40.5975 37.3333 41.3334 37.3333C42.0694 37.3333 42.6667 36.7359 42.6667 36V26.6667C42.6667 25.932 43.2653 25.3334 44 25.3334C44.7347 25.3334 45.3333 25.932 45.3333 26.6667C45.3333 27.34 45.8345 27.9081 46.5039 27.9908C47.1599 28.0681 47.7972 27.6428 47.9599 26.9908L49.2931 21.6575C49.4452 21.0508 49.1545 20.4202 48.5958 20.1402L46.3264 19.0069L45.1931 16.7375C44.9664 16.2855 44.5052 16.0002 43.9999 16.0002H38.6666C22.72 16 9.20672 18.6653 9.07203 18.6933Z" fill="#EE3425"/>
<path d="M36 37.3333C36.7359 37.3333 37.3333 36.7359 37.3333 36V26.6667C37.3333 24.4614 35.5386 22.6667 33.3333 22.6667C31.128 22.6667 29.3333 24.4614 29.3333 26.6667V36C29.3333 36.7359 29.9306 37.3333 30.6666 37.3333C31.4025 37.3333 31.9998 36.7359 31.9998 36V26.6667C31.9998 25.932 32.5984 25.3334 33.3331 25.3334C34.0678 25.3334 34.6664 25.932 34.6664 26.6667V36C34.6667 36.7359 35.2641 37.3333 36 37.3333Z" fill="#EE3425"/>
<path d="M16 13.3333V9.33328C16 8.59734 15.4027 8 14.6667 8C13.9308 8 13.3334 8.59734 13.3334 9.33328V13.3333C13.3334 14.0692 13.9308 14.6666 14.6667 14.6666C15.4027 14.6667 16 14.0694 16 13.3333Z" fill="#EE3425"/>
<path d="M68 40C68.7359 40 69.3333 39.4027 69.3333 38.6667V30.6667C69.3333 28.4614 67.5386 26.6667 65.3333 26.6667C64.5973 26.6667 64 27.2641 64 28C64 28.736 64.5973 29.3333 65.3333 29.3333C66.068 29.3333 66.6666 29.9319 66.6666 30.6666V38.6666C66.6667 39.4027 67.2641 40 68 40Z" fill="#EE3425"/>
<path d="M21.3333 12.708V8.75064C21.3333 8.01329 20.7359 7.41736 20 7.41736C19.2641 7.41736 18.6667 8.01329 18.6667 8.75064V12.708C18.6667 13.4439 19.2641 14.0413 20 14.0413C20.7359 14.0413 21.3333 13.4441 21.3333 12.708Z" fill="#EE3425"/>
<path d="M78.6667 53.3333H74.6667V46.6666C74.6667 45.9319 75.2653 45.3333 76 45.3333C76.7359 45.3333 77.3333 44.7359 77.3333 44V22.6667C77.3333 20.2747 75.7253 18.6667 73.3333 18.6667H64C63.4947 18.6667 63.0333 18.952 62.8067 19.4041L61.4734 22.0708C61.3814 22.2548 61.3334 22.4602 61.3334 22.6667V24.7814L59.0575 27.0574C58.9562 27.1588 58.8722 27.2759 58.8069 27.4041L57.4736 30.0708C57.3816 30.2549 57.3336 30.4602 57.3336 30.6667V35.6253L53.6577 34.7067C53.347 34.6281 53.0217 34.6653 52.7377 34.8067L50.9297 35.7108L47.6094 32.3906C47.088 31.8692 46.2453 31.8692 45.7241 32.3906C45.2027 32.9119 45.2027 33.7547 45.7241 34.2759L49.7241 38.2759C50.1281 38.68 50.7494 38.7827 51.2627 38.5266L53.488 37.4133L58.3427 38.6266C58.7427 38.728 59.1653 38.6372 59.4867 38.3839C59.8108 38.1319 60 37.7439 60 37.3333V30.9813L61.0959 28.7892L63.6092 26.2759C63.8598 26.0266 63.9998 25.6866 63.9998 25.3333V22.9813L64.8239 21.3333H73.3333C74.2547 21.3333 74.6666 21.7453 74.6666 22.6666V42.8945C73.1145 43.4452 71.9998 44.9278 71.9998 46.6666V53.3333H69.3331V46.6666C69.3331 44.4613 67.5384 42.6666 65.3331 42.6666C63.1278 42.6666 61.3331 44.4613 61.3331 46.6666V53.3333H58.6664V45.3333C58.6664 43.128 56.8717 41.3333 54.6664 41.3333C52.4611 41.3333 50.6664 43.128 50.6664 45.3333V53.3333H48V44C48 41.7947 46.2053 40 44 40C41.7947 40 40 41.7947 40 44V53.3333H37.3333V44C37.3333 41.7947 35.5386 40 33.3333 40C31.128 40 29.3333 41.7947 29.3333 44V53.3333H26.6666V45.3333C26.6666 43.128 24.8719 41.3333 22.6666 41.3333C20.4612 41.3333 18.6666 43.128 18.6666 45.3333V53.3333H16V46.6666C16 44.4613 14.2053 42.6666 12 42.6666C9.79469 42.6666 8 44.4613 8 46.6666V53.3333H5.33328V7.56C8.19734 6.43203 18.5306 2.74797 31.5692 2.66797C34.3733 4.88 36.7025 11.3213 37.3852 13.7C37.5866 14.4067 38.3266 14.8173 39.0331 14.6147C39.7411 14.4133 40.1505 13.6747 39.9478 12.9667C39.6625 11.9641 37.0238 3.08 32.7398 0.224062C32.5213 0.0787497 32.2625 0 31.9998 0C15.9025 0 3.95844 5.22531 3.45859 5.44797C2.97719 5.66266 2.66656 6.14 2.66656 6.66656V53.3333H1.33328C0.597344 53.3333 0 53.9306 0 54.6666C0 55.4025 0.597344 55.9999 1.33328 55.9999H78.6666C79.4025 55.9999 79.9998 55.4025 79.9998 54.6666C79.9998 53.9306 79.4027 53.3333 78.6667 53.3333ZM13.3333 53.3333H10.6667V46.6666C10.6667 45.9319 11.2653 45.3333 12 45.3333C12.7347 45.3333 13.3333 45.9319 13.3333 46.6666V53.3333ZM24 53.3333H21.3333V45.3333C21.3333 44.5986 21.9319 44 22.6666 44C23.4012 44 23.9998 44.5986 23.9998 45.3333V53.3333H24ZM34.6667 53.3333H32V44C32 43.2653 32.5986 42.6667 33.3333 42.6667C34.068 42.6667 34.6666 43.2653 34.6666 44V53.3333H34.6667ZM45.3333 53.3333H42.6666V44C42.6666 43.2653 43.2652 42.6667 43.9998 42.6667C44.7345 42.6667 45.3331 43.2653 45.3331 44V53.3333H45.3333ZM56 53.3333H53.3333V45.3333C53.3333 44.5986 53.9319 44 54.6666 44C55.4012 44 55.9998 44.5986 55.9998 45.3333V53.3333H56ZM66.6667 53.3333H64V46.6666C64 45.9319 64.5986 45.3333 65.3333 45.3333C66.068 45.3333 66.6666 45.9319 66.6666 46.6666V53.3333H66.6667Z" fill="#EE3425"/>
<path d="M64 38.6667V33.3334C64 32.5975 63.4027 32.0002 62.6667 32.0002C61.9308 32.0002 61.3334 32.5975 61.3334 33.3334V38.6667C61.3334 39.4027 61.9308 40 62.6667 40C63.4027 40 64 39.4027 64 38.6667Z" fill="#EE3425"/>
<path d="M26.6667 12V8C26.6667 7.26406 26.0694 6.66672 25.3334 6.66672C24.5975 6.66672 24.0002 7.26406 24.0002 8V12C24.0002 12.7359 24.5975 13.3333 25.3334 13.3333C26.0694 13.3333 26.6667 12.7359 26.6667 12Z" fill="#EE3425"/>
<path d="M32 12V8C32 7.26406 31.4027 6.66672 30.6667 6.66672C29.9308 6.66672 29.3334 7.26406 29.3334 8V12C29.3334 12.7359 29.9308 13.3333 30.6667 13.3333C31.4027 13.3333 32 12.7359 32 12Z" fill="#EE3425"/>
</svg>
