<svg width="305" height="238" fill="none" xmlns="http://www.w3.org/2000/svg"><path fill-rule="evenodd" clip-rule="evenodd" d="M42.77 76.424c3.233-4.345 8.414-15.332 6.544-27.844-1.261-8.438-5.438-14.513-9.037-19.746-3.964-5.766-7.226-10.51-5.116-16.268C39.187 1.582 59.38 1.396 62.307 8.394c.563 1.344.438 4.85.268 9.629-.553 15.53-1.584 44.503 18.94 56.394 6.493.258 12.432.964 17.157 2.32 3.404.976 5.37 4.246 5.482 7.785 1.002 31.72 1.685 87.566-2.541 95.859-3.617 7.097-44.811-2.238-60.74-6.148-3.815-.937-6.652-4.066-7.3-7.94L20.71 89.546c-.906-5.402 2.683-10.505 8.103-11.3a450.103 450.103 0 0 1 13.956-1.822z" fill="#A19B9B"/><path d="M39.975 158.331l-9.69-59.45c-.875-5.372 2.69-10.436 8.076-11.22 13.87-2.021 39.301-4.905 53.28-1.412 3.435.859 5.421 4.135 5.519 7.674.716 25.97 1.083 70.273-2.289 76.938-2.833 5.6-33.98-1.26-47.572-4.555-3.832-.93-6.69-4.084-7.324-7.975z" fill="#fff" stroke="#A19B9B" stroke-width="3"/><path d="M36.397 162.638L25.155 94.585c-.89-5.386 2.699-10.471 8.1-11.262 15.47-2.264 45.589-5.758 61.465-1.475 3.418.922 5.388 4.198 5.493 7.737.852 28.837 1.364 78.872-2.43 86.347-3.221 6.345-39.313-1.731-54.086-5.339-3.823-.933-6.659-4.072-7.3-7.955z" stroke="#fff" stroke-width="3"/><circle cx="53.997" cy="114.997" r="2.5" transform="rotate(12.966 53.997 114.997)" fill="#A19B9B"/><circle cx="78.997" cy="113.997" r="2.5" transform="rotate(12.966 78.997 113.997)" fill="#A19B9B"/><path d="M41.613 104.483c.173-3.723 6.366-9.822 13.264-4.129M70.392 99.822c1.122-4.873 9.62-7.02 13.342-.007" stroke="#A19B9B" stroke-width="2" stroke-linecap="round" stroke-linejoin="round"/><circle cx="50.038" cy="16.634" r="6.5" transform="rotate(12.966 50.038 16.634)" fill="#fff"/><path d="M50.135 105.889c-6.507-.544-3.846 10.175-1.072 17.295.465 1.196 1.945 1.572 3.123 1.063 1.802-.779 3.616-.988 5.134-.93 1.44.055 2.878-1.084 2.658-2.508-.935-6.041-3.708-14.407-9.843-14.92zM78.46 104.417c-5.783-2.551-6.785 8.145-6.528 15.617.044 1.29 1.33 2.134 2.618 2.041 1.832-.132 3.503.226 4.843.734 1.349.511 3.084-.096 3.34-1.515 1.067-5.894 1.18-14.473-4.273-16.877z" stroke="#A19B9B" stroke-width="2"/><path d="M84.581 145.161c-4.618 12.662-22.349 13.882-30.714 3.353 5.58 2.77 17.85 6.615 22.283-.163" stroke="#A19B9B" stroke-width="2" stroke-linecap="round" stroke-linejoin="round"/><path d="M203.166 171.029l23.883-28.001h-16.471l-15.647-6.176 8.235 34.177z" fill="#A19B9B"/><path d="M195.655 130.35l19.431-97.198c1.783-8.92 10.46-14.706 19.38-12.923 8.92 1.783 14.706 10.46 12.923 19.38l-19.431 97.198c-1.083 5.416-6.351 8.929-11.766 7.846l-12.692-2.537c-5.415-1.083-8.928-6.351-7.845-11.766z" fill="#A19B9B"/><path d="M213.049 36.378c2.882 4.736 16.883 13.177 34.589 7.104M211.402 44.613c3.02 4.653 17.687 12.944 36.236 6.979M194.107 134.769c3.02 4.652 17.687 12.943 36.236 6.978M198.509 157.828s7.951 5.765 15.363 3.706" stroke="#fff" stroke-width="4" stroke-linecap="round" stroke-linejoin="round"/><path d="M147 187h131.75c13.393 0 24.25 10.857 24.25 24.25v0c0 13.393-10.857 24.25-24.25 24.25H73" stroke="#A19B9B" stroke-width="4" stroke-linecap="round" stroke-linejoin="round"/></svg>