<svg width="192" height="359" fill="none" xmlns="http://www.w3.org/2000/svg"><path d="M3 179.5S40.537 199 93 199s96-19.5 96-19.5" stroke="#A19B9B" stroke-width="5" stroke-linecap="round" stroke-linejoin="round"/><path d="M16.5 207s31.245 16 76.5 16c45.255 0 78.5-16 78.5-16" stroke="#A19B9B" stroke-width="4" stroke-linecap="round" stroke-linejoin="round"/><path d="M50.5 232s9.26 10 42.5 10 41.5-6.5 41.5-6.5" stroke="#A19B9B" stroke-width="3" stroke-linecap="round" stroke-linejoin="round"/><path fill-rule="evenodd" clip-rule="evenodd" d="M59.833 73.397c2.175-4.96 4.759-16.829.129-28.602-3.123-7.94-8.556-12.923-13.237-17.216-5.156-4.729-9.4-8.62-8.636-14.705C39.548 1.267 59.183-3.446 63.607 2.718c.85 1.183 1.515 4.628 2.421 9.323 2.946 15.258 8.442 43.724 31.111 50.707 6.385-1.206 12.331-1.85 17.24-1.59 3.536.189 6.185 2.933 7.088 6.357 8.095 30.687 21.29 84.955 19.033 93.985-1.932 7.728-44.17 7.874-60.57 7.637-3.928-.056-7.395-2.469-8.897-6.099L41.28 91.134c-2.095-5.062.258-10.84 5.361-12.83a450.029 450.029 0 0 1 13.192-4.907z" fill="#A19B9B"/><path d="M75.487 153.842l-22.782-55.76c-2.058-5.038.28-10.773 5.352-12.746 13.062-5.081 37.199-13.598 51.606-13.33 3.539.066 6.209 2.813 7.099 6.24 6.524 25.147 16.822 68.238 15.032 75.49-1.504 6.093-33.397 6.397-47.381 6.234-3.942-.045-7.435-2.478-8.926-6.128z" fill="#fff" stroke="#A19B9B" stroke-width="3"/><path d="M72.966 158.843L46.74 95.047c-2.076-5.05.28-10.81 5.367-12.792 14.567-5.678 43.134-15.84 59.566-15.229 3.539.132 6.193 2.883 7.089 6.308 7.301 27.91 19.027 76.554 17.006 84.69-1.715 6.906-38.698 7.134-53.904 6.933-3.935-.052-7.403-2.474-8.9-6.114z" stroke="#fff" stroke-width="3"/><path d="M113.031 83.895c1.148 3.808 1.049 7.205-.22 7.588-1.27.382-1.106-2.574-2.254-6.382-1.147-3.808-3.171-7.026-1.902-7.408 1.269-.383 3.229 2.394 4.376 6.202zM80.019 146.898c1.698 4.435 4.623 7.102 2.997 7.725-1.626.623-4.321-2.467-6.02-6.902-1.698-4.435-1.757-8.535-.131-9.158 1.626-.623 1.455 3.901 3.154 8.335z" fill="#A19B9B"/><circle cx="75.5" cy="107.5" r="2.5" fill="#A19B9B"/><circle cx="100.5" cy="100.5" r="2.5" fill="#A19B9B"/><circle cx="53.5" cy="13.5" r="6.5" fill="#fff"/><path d="M73.621 100.458c-6.463.93-1.465 10.779 2.835 17.095.723 1.061 2.249 1.095 3.283.334 1.581-1.163 3.302-1.774 4.794-2.057 1.415-.27 2.562-1.702 2.027-3.041-2.266-5.677-6.846-13.208-12.939-12.331zM100.893 92.668c-6.209-1.188-4.785 9.46-2.858 16.684.333 1.247 1.776 1.781 3.01 1.401 1.756-.54 3.464-.566 4.884-.372 1.429.196 2.984-.785 2.916-2.225-.284-5.983-2.099-14.368-7.952-15.488z" stroke="#A19B9B" stroke-width="2"/><path d="M85.822 140.159C96.335 148.542 113.34 143.375 115 130" stroke="#A19B9B" stroke-width="2" stroke-linecap="round" stroke-linejoin="round"/><path d="M66.42 341.653l8.293-16.389c1.655-3.254 5.747-4.508 9.121-2.79l8.246 4.196c.322-.345.654-.704 1.003-1.084 3.212-3.46 7.606-8.2 11.405-15.713 3.812-7.53 5.033-13.894 5.929-18.541.094-.492.183-.966.276-1.419l-5.533-2.81-2.722-1.388c-3.379-1.72-4.78-5.773-3.133-9.032l8.293-16.39c1.649-3.256 5.742-4.511 9.122-2.79l4.619 2.368-.064.125a21.214 21.214 0 0 1 4.518 4.128c1.244 1.546 2.21 3.094 2.951 4.719 6.048 12.997 3.918 27.377-7.342 49.624-15.565 30.75-34.786 35.089-35.618 35.266-1.821.363-3.637.491-5.56.385a21.06 21.06 0 0 1-5.968-1.214l-.053.092-4.65-2.305c-3.374-1.722-4.778-5.775-3.134-9.038z" fill="#A19B9B"/></svg>