<svg width="96" height="112" fill="none" xmlns="http://www.w3.org/2000/svg"><path d="M23.675 3.867c.414 9.092 6.406 25.683 24.68 25.919 13.638.177 24.678-11.602 24.678-25.919 0-1.8.06-2.184-.295-3.867H23.852c-.324 1.683-.295 1.122-.177 3.867zM73.063 82.273c-.413-9.092-6.406-25.683-24.68-25.919-13.638-.177-24.678 11.602-24.678 25.919 0 1.8-.03 2.332.295 4.015h48.856c.295-1.683.325-1.3.207-4.015z" fill="#fff" fill-opacity=".7"/><path d="M81.683 0v3.867c0 19.336-14.908 34.982-33.329 34.982-19.985 0-33.328-15.676-33.328-34.982 0-1.712-.06-2.243.147-3.867H8.09v86.288h6.937v-4.015c0-19.336 14.908-34.981 33.328-34.981 19.986 0 33.329 15.675 33.329 34.981 0 1.712-.06 2.391-.266 4.015h7.173V0h-6.907z" fill="#fff" fill-opacity=".7"/><path d="M22.553 86.258h-1.092l-.708-2.007a1.496 1.496 0 0 0-.266-.473 2.353 2.353 0 0 0-.384-.384 1.42 1.42 0 0 0-.472-.236 1.72 1.72 0 0 0-.56-.088h-1.86v3.217h-1.004V78.76h3.925c.207 0 .355.03.532.059.177.03.325.088.473.147.147.06.295.148.413.266.236.207.383.443.531.738.118.295.177.59.177.886 0 .265-.03.502-.118.738a1.901 1.901 0 0 1-.325.59 1.935 1.935 0 0 1-.53.443 2.52 2.52 0 0 1-.71.266v.03c.532.176.916.62 1.21 1.357l.768 1.978zm-5.284-4.103h2.244c.295 0 .56-.03.797-.06.236-.058.413-.117.56-.236.148-.118.237-.236.325-.413a1.96 1.96 0 0 0 .09-.62c0-.443-.148-.767-.414-.944-.266-.207-.68-.296-1.21-.296h-2.392v2.569zM12.753 105.919c0 1.653-.532 2.952-1.565 3.867s-2.598 1.358-4.694 1.358H0V93.461h6.347c.885 0 1.683.118 2.391.325.709.207 1.328.502 1.8.915.503.384.886.856 1.123 1.417.265.561.383 1.181.383 1.89 0 .885-.206 1.653-.59 2.273-.413.649-1.004 1.151-1.83 1.564.531.148.974.354 1.358.62.383.266.708.561.974.915.265.354.443.738.56 1.181.178.413.237.886.237 1.358zm-9.565-5.225h3.04c.945 0 1.624-.177 2.067-.502.443-.354.68-.915.68-1.771a3.37 3.37 0 0 0-.148-.974 1.419 1.419 0 0 0-.502-.68 2.464 2.464 0 0 0-.886-.413 5.778 5.778 0 0 0-1.358-.147H3.188v4.487zm0 7.705h3.159c1.063 0 1.86-.207 2.361-.62.532-.414.768-1.033.768-1.86 0-.443-.059-.797-.177-1.122a1.625 1.625 0 0 0-.561-.767c-.266-.207-.59-.355-1.033-.443a7.79 7.79 0 0 0-1.565-.148H3.188v4.96zM27.72 111.144H14.967V93.461h12.398v2.893h-9.21v4.31h8.59v2.893h-8.59v4.694h9.565v2.893zM44.28 111.144h-3.424l-1.476-4.398a4.393 4.393 0 0 0-.502-1.063 3.864 3.864 0 0 0-.708-.827 2.724 2.724 0 0 0-.886-.531 3.09 3.09 0 0 0-1.063-.177h-3.129v6.996h-3.188V93.461h7.44c.62 0 1.21.03 1.74.089.532.059 1.034.148 1.477.295.443.148.856.354 1.21.62.355.266.65.59.915 1.033.532.827.797 1.83.797 3.011 0 1.24-.324 2.244-.944 3.011-.62.768-1.506 1.299-2.657 1.565v.03c.65.236 1.18.619 1.594 1.18.413.561.797 1.27 1.122 2.185l1.682 4.664zm-11.158-9.771h3.896c.561 0 1.063-.059 1.447-.148a2.43 2.43 0 0 0 1.004-.472c.265-.207.442-.502.56-.827.119-.354.178-.738.178-1.24 0-.885-.236-1.535-.738-1.948-.502-.413-1.24-.62-2.214-.62h-4.163v5.255h.03zM56.915 111.144H46.081V93.461h3.188v14.731h7.646v2.952zM66.096 93.166c1.21 0 2.302.207 3.277.65.974.442 1.83 1.062 2.509 1.86.708.796 1.24 1.77 1.623 2.892.384 1.122.561 2.362.561 3.749 0 1.358-.177 2.598-.56 3.72-.384 1.122-.916 2.096-1.595 2.893-.679.797-1.535 1.417-2.509 1.86-.974.442-2.096.649-3.306.649s-2.332-.207-3.306-.649a7.544 7.544 0 0 1-2.54-1.86c-.708-.797-1.239-1.771-1.623-2.893-.384-1.122-.56-2.362-.56-3.72 0-1.387.176-2.627.56-3.749.384-1.121.915-2.096 1.624-2.893a7.26 7.26 0 0 1 2.539-1.86c.974-.442 2.096-.649 3.306-.649zm-.03 15.41c.738 0 1.417-.148 1.978-.473a3.896 3.896 0 0 0 1.476-1.299c.413-.561.709-1.21.945-1.977a9.573 9.573 0 0 0 .325-2.51 9.79 9.79 0 0 0-.325-2.538 6.433 6.433 0 0 0-.915-1.978 4.433 4.433 0 0 0-1.476-1.3 4.346 4.346 0 0 0-1.978-.472c-.738 0-1.417.148-2.008.443-.59.296-1.092.738-1.505 1.3a5.857 5.857 0 0 0-.945 1.977 9.794 9.794 0 0 0-.324 2.539c0 .915.118 1.741.324 2.509.207.768.532 1.417.945 1.978.413.561.915.974 1.476 1.299.56.324 1.299.502 2.007.502zM89.89 111.144h-3.218l-7.469-12.723.088 6.288v6.435h-3.01V93.461h3.247l7.468 12.724-.088-6.288V93.46h3.01v17.683h-.029zM95.38 111.144h-2.214V93.461h2.214v17.683z" fill="#fff" fill-opacity=".7"/></svg>