<svg width="96" height="110" fill="none" xmlns="http://www.w3.org/2000/svg"><path d="M24.229 2.148c.413 9.092 6.406 25.682 24.679 25.918 13.638.178 24.679-11.601 24.679-25.918 0-1.801.059-2.185-.296-3.868H24.407c-.325 1.683-.295 1.122-.177 3.868zM73.616 80.553c-.413-9.092-6.406-25.682-24.679-25.918-13.638-.177-24.679 11.601-24.679 25.919 0 1.8-.03 2.332.296 4.014H73.41c.295-1.682.324-1.299.206-4.014z" fill="#EE3425"/><path d="M82.236-1.72v3.868c0 19.335-14.908 34.981-33.328 34.981-19.986 0-33.329-15.675-33.329-34.981 0-1.713-.059-2.244.148-3.868H8.642v86.288h6.937v-4.014c0-19.336 14.908-34.982 33.329-34.982 19.985 0 33.328 15.675 33.328 34.981 0 1.713-.059 2.392-.266 4.015h7.174V-1.72h-6.908z" fill="#EE3425"/><path d="M23.107 84.539h-1.092l-.709-2.008a1.497 1.497 0 0 0-.265-.472 2.361 2.361 0 0 0-.384-.384 1.422 1.422 0 0 0-.473-.236 1.72 1.72 0 0 0-.56-.088h-1.86v3.217H16.76v-7.527H20.686c.207 0 .355.03.532.059.177.03.324.088.472.147.148.06.295.148.413.266.236.207.384.443.532.738.118.295.177.59.177.885 0 .266-.03.502-.118.739a1.9 1.9 0 0 1-.325.59 1.93 1.93 0 0 1-.531.443 2.52 2.52 0 0 1-.709.265v.03c.531.177.915.62 1.21 1.358l.768 1.978zm-5.284-4.104h2.243c.296 0 .561-.03.797-.059.237-.059.414-.118.561-.236.148-.118.236-.236.325-.413.06-.177.089-.384.089-.62 0-.443-.148-.767-.414-.945-.265-.206-.679-.295-1.21-.295h-2.391v2.568zM13.306 104.199c0 1.653-.531 2.952-1.564 3.867-1.034.916-2.598 1.358-4.694 1.358H.554V91.742H6.9c.886 0 1.683.118 2.392.325.708.206 1.328.501 1.8.915a3.48 3.48 0 0 1 1.122 1.417c.266.56.384 1.18.384 1.889 0 .886-.207 1.653-.59 2.273-.414.65-1.004 1.151-1.83 1.564.53.148.973.355 1.357.62.384.266.709.561.974.916.266.354.443.738.561 1.18.177.414.236.886.236 1.358zm-9.564-5.225h3.04c.945 0 1.624-.177 2.067-.502.443-.354.679-.915.679-1.77a3.37 3.37 0 0 0-.148-.975 1.419 1.419 0 0 0-.502-.679 2.464 2.464 0 0 0-.885-.413 5.778 5.778 0 0 0-1.358-.148H3.742v4.487zm0 7.705H6.9c1.063 0 1.86-.207 2.362-.62.531-.413.768-1.033.768-1.86 0-.443-.06-.797-.178-1.121a1.632 1.632 0 0 0-.56-.768c-.266-.207-.59-.354-1.034-.443a7.87 7.87 0 0 0-1.564-.147H3.742v4.959zM28.273 109.424H15.52V91.742H27.92v2.893h-9.21v4.31h8.59v2.893h-8.59v4.693h9.564v2.893zM44.834 109.424H41.41l-1.476-4.398a4.397 4.397 0 0 0-.502-1.063 3.863 3.863 0 0 0-.709-.826 2.712 2.712 0 0 0-.885-.532 3.09 3.09 0 0 0-1.063-.177h-3.13v6.996h-3.187V91.742h7.439c.62 0 1.21.03 1.741.088.532.06 1.034.148 1.476.296.443.147.857.354 1.21.62.355.265.65.59.916 1.033.531.826.797 1.83.797 3.01 0 1.24-.325 2.244-.945 3.012-.62.767-1.505 1.299-2.657 1.564v.03c.65.236 1.181.62 1.594 1.181.414.561.798 1.269 1.122 2.184l1.683 4.664zm-11.159-9.77h3.897c.56 0 1.063-.06 1.447-.148a2.441 2.441 0 0 0 1.003-.473c.266-.206.443-.502.561-.826.118-.355.177-.738.177-1.24 0-.886-.236-1.535-.738-1.948-.502-.414-1.24-.62-2.214-.62h-4.162v5.254h.03zM57.469 109.424H46.635V91.742h3.188v14.73h7.646v2.952zM66.65 91.447c1.21 0 2.302.206 3.276.649.974.443 1.83 1.063 2.51 1.86.708.797 1.24 1.771 1.623 2.893.384 1.121.56 2.361.56 3.749 0 1.358-.176 2.598-.56 3.719-.384 1.122-.915 2.096-1.594 2.893-.679.797-1.535 1.417-2.51 1.86-.973.443-2.095.65-3.305.65s-2.333-.207-3.307-.65a7.542 7.542 0 0 1-2.539-1.86c-.708-.797-1.24-1.771-1.623-2.893-.384-1.121-.561-2.361-.561-3.719 0-1.388.177-2.627.56-3.75.385-1.121.916-2.095 1.624-2.892a7.258 7.258 0 0 1 2.54-1.86c.973-.443 2.095-.65 3.306-.65zm-.03 15.409c.738 0 1.417-.147 1.978-.472a3.895 3.895 0 0 0 1.476-1.299c.413-.561.708-1.21.945-1.978a9.56 9.56 0 0 0 .324-2.509c0-.915-.118-1.771-.325-2.539a6.433 6.433 0 0 0-.915-1.978 4.433 4.433 0 0 0-1.476-1.299 4.345 4.345 0 0 0-1.977-.472c-.739 0-1.418.148-2.008.443-.59.295-1.092.738-1.505 1.299a5.858 5.858 0 0 0-.945 1.978 9.792 9.792 0 0 0-.325 2.538c0 .915.118 1.742.325 2.51a5.85 5.85 0 0 0 .945 1.977c.413.561.915.975 1.476 1.299.56.325 1.299.502 2.007.502zM90.443 109.424h-3.218l-7.468-12.723.088 6.288v6.435h-3.011V91.742h3.247l7.469 12.723-.089-6.288v-6.435h3.011v17.682h-.03zM95.934 109.424H93.72V91.742h2.214v17.682z" fill="#000"/></svg>