<svg width="21" height="41" fill="none" xmlns="http://www.w3.org/2000/svg"><rect x="1" y="1" width="18.779" height="31.307" rx="9.39" stroke="#EE3425" stroke-opacity=".2" stroke-width="2"/><path d="M12.16 9.437c0 .982-.794 1.776-1.77 1.776s-1.77-.794-1.77-1.776.794-1.776 1.77-1.776 1.77.794 1.77 1.776z" stroke="#EE3425" stroke-opacity=".2" stroke-width="2"/><path d="M6.939 35.127a1 1 0 0 0-1.41 1.42l1.41-1.42zM10.425 40l-.705.71a1 1 0 0 0 1.415-.007l-.71-.703zm4.831-3.46a1 1 0 1 0-1.421-1.407l1.421 1.407zm-9.727.006l4.19 4.163 1.41-1.418-4.19-4.164-1.41 1.42zm5.606 4.157l4.121-4.163-1.421-1.407-4.121 4.163 1.421 1.407z" fill="#EE3425" fill-opacity=".2"/></svg>