<svg width="35" height="35" viewBox="0 0 35 35" fill="none" xmlns="http://www.w3.org/2000/svg">
<path d="M34.683 16.4656C34.491 16.386 34.2701 16.4299 34.1231 16.5768L32.5845 18.1154V7.65429C32.5845 7.37053 32.3545 7.14057 32.0708 7.14057H28.1237L29.5565 5.70775L30.9377 4.32648C31.2335 4.03069 31.3964 3.63721 31.3964 3.21885C31.3964 2.80049 31.2335 2.40715 30.9377 2.11122L29.3412 0.514753C29.0454 0.218962 28.6519 0.0560608 28.2336 0.0560608C27.8152 0.0560608 27.4218 0.218962 27.1259 0.514753L25.7447 1.89603L24.0756 3.56509L20.5002 7.1405H4.55411V2.05831C4.55411 1.77455 4.32408 1.54459 4.04039 1.54459C1.81255 1.54473 0 3.35714 0 5.58512V27.4045C0 27.4425 0.00437501 27.4794 0.012168 27.5149C0.0831252 28.4603 0.49212 29.3386 1.17565 30.0054C1.90627 30.718 2.87076 31.1104 3.8915 31.1104H19.5894L16.633 34.0669C16.4861 34.2139 16.4421 34.4347 16.5216 34.6268C16.6011 34.8187 16.7885 34.9439 16.9962 34.9439H34.4864C34.77 34.9439 35.0001 34.7139 35.0001 34.4302V16.9402C35.0001 16.7324 34.8748 16.5451 34.683 16.4656ZM27.8526 1.24135C28.0626 1.03121 28.4047 1.03121 28.6147 1.24135L30.2113 2.83788C30.4214 3.04795 30.4214 3.38995 30.2113 3.60009L29.1933 4.6181L26.8345 2.25936L27.8526 1.24135ZM26.108 2.98588L28.4667 5.34456L27.5241 6.28717L25.1655 3.92849L26.108 2.98588ZM33.9728 22.7126H33.025C32.7412 22.7126 32.5112 22.9426 32.5112 23.2263C32.5112 23.5101 32.7412 23.74 33.025 23.74H33.9728V25.2881H33.025C32.7412 25.2881 32.5112 25.5181 32.5112 25.8018C32.5112 26.0856 32.7412 26.3155 33.025 26.3155H33.9728V27.8636H33.025C32.7412 27.8636 32.5112 28.0935 32.5112 28.3773C32.5112 28.661 32.7412 28.891 33.025 28.891H33.9728V30.4391H33.025C32.7412 30.4391 32.5112 30.6691 32.5112 30.9528C32.5112 31.2365 32.7412 31.4665 33.025 31.4665H33.9728V33.9166H18.2364L23.4254 28.7277C23.6261 28.527 23.6261 28.2018 23.4254 28.0012C23.4024 27.9781 23.3777 27.9582 23.3517 27.9404C23.1517 27.8034 22.8765 27.8236 22.6988 28.0012L20.6169 30.0831H3.89157C2.33352 30.0831 1.07926 28.8667 1.0299 27.3115C1.03284 27.2139 1.04043 27.1171 1.0526 27.0214L1.0528 27.0197C1.05855 26.9743 1.06545 26.929 1.07331 26.884C1.0742 26.8789 1.07516 26.8738 1.07605 26.8686C1.08322 26.8285 1.09129 26.7886 1.10011 26.7488C1.10257 26.7377 1.10517 26.7267 1.10777 26.7157C1.11556 26.682 1.12397 26.6486 1.13299 26.6153C1.13791 26.5973 1.14304 26.5794 1.1483 26.5614C1.15582 26.5353 1.16362 26.5093 1.17189 26.4835C1.18016 26.4577 1.18898 26.4322 1.19793 26.4067C1.20415 26.3889 1.21031 26.3711 1.217 26.3533C1.22951 26.3197 1.24278 26.2864 1.25645 26.2534C1.26034 26.2439 1.26417 26.2343 1.26821 26.2248C1.28577 26.1838 1.30403 26.1432 1.3233 26.1032L1.3257 26.098C1.72751 25.2665 2.50032 24.6466 3.42775 24.4542C3.43035 24.4536 3.43295 24.453 3.43554 24.4525C3.47806 24.4438 3.52099 24.4363 3.5642 24.4294C3.57137 24.4283 3.57855 24.4268 3.58587 24.4257C3.6249 24.4198 3.66434 24.4152 3.70379 24.4107C3.71486 24.4095 3.72587 24.4078 3.73701 24.4067C3.77509 24.4028 3.8135 24.4003 3.85192 24.3979C3.86409 24.3972 3.87626 24.3959 3.88843 24.3953C3.93874 24.3927 3.98946 24.3914 4.04039 24.3914C4.32408 24.3914 4.55411 24.1615 4.55411 23.8777V20.1529C4.55411 19.8691 4.32408 19.6391 4.04039 19.6391C3.7567 19.6391 3.52667 19.8691 3.52667 20.1529V23.3963C2.65919 23.506 1.85398 23.893 1.21906 24.513C1.15227 24.5782 1.08897 24.646 1.02731 24.7149V5.58512C1.02731 4.09891 2.10916 2.86044 3.5266 2.61585V7.65429V18.098C3.5266 18.3817 3.75663 18.6118 4.04032 18.6118C4.32401 18.6118 4.55404 18.3818 4.55404 18.0981V8.16801H19.4728L16.6329 11.0079C16.4323 11.2086 16.4323 11.5338 16.6329 11.7345C16.8335 11.935 17.1588 11.935 17.3594 11.7345L21.0763 8.01755L24.4389 4.65495L26.7975 7.01369L26.5208 7.29041L16.1617 17.6495L13.803 15.2909L15.8448 13.2491C16.0454 13.0484 16.0454 12.7232 15.8448 12.5226C15.6441 12.322 15.3189 12.322 15.1183 12.5226L12.7132 14.9276C12.7004 14.9405 12.6883 14.9541 12.6771 14.968C12.6733 14.9727 12.67 14.9776 12.6664 14.9825C12.6592 14.9921 12.652 15.0018 12.6454 15.012C12.6417 15.0178 12.6382 15.0239 12.6347 15.0299C12.629 15.0395 12.6235 15.0492 12.6186 15.0591C12.6153 15.0656 12.6123 15.072 12.6093 15.0787C12.6047 15.0888 12.6005 15.099 12.5966 15.1093C12.5952 15.1129 12.5935 15.1163 12.5922 15.12L11.5913 17.9552L10.9089 19.8883C10.8999 19.914 10.8934 19.9401 10.8886 19.9665H9.18014C8.89644 19.9665 8.66641 20.1964 8.66641 20.4802C8.66641 20.7639 8.89644 20.9939 9.18014 20.9939H23.4067C23.6905 20.9939 23.9204 20.7639 23.9204 20.4802C23.9204 20.1964 23.6905 19.9665 23.4067 19.9665H13.1997L16.3327 18.8605C16.3353 18.8596 16.3377 18.8583 16.3403 18.8573C16.3525 18.8528 16.3644 18.8477 16.3763 18.8423C16.381 18.8402 16.3857 18.8381 16.3903 18.8359C16.4026 18.8297 16.4147 18.8229 16.4266 18.8157C16.4304 18.8134 16.4344 18.8112 16.4381 18.8089C16.4505 18.8009 16.4625 18.7922 16.4744 18.7831C16.4773 18.7808 16.4804 18.7788 16.4833 18.7765C16.4975 18.765 16.5116 18.7527 16.5248 18.7394L27.0962 8.16808H31.557V19.1429L24.2086 26.4914C24.008 26.6921 24.008 27.0173 24.2086 27.2179C24.2211 27.2304 24.2342 27.2422 24.2477 27.2532C24.3419 27.3299 24.4569 27.3684 24.5719 27.3684C24.6869 27.3684 24.802 27.3299 24.8961 27.2532C24.9096 27.2422 24.9226 27.2304 24.9352 27.2179L33.9728 18.1802V22.7126ZM15.2221 18.1629L13.7506 18.6823L12.7702 17.7019L13.2896 16.2304L15.2221 18.1629Z" fill="#EE3425"/>
</svg>
