<svg width="40" height="40" fill="none" xmlns="http://www.w3.org/2000/svg"><path d="M9.41 33.514l2.716-6.143c.543-1.22 2.015-1.759 3.28-1.198l3.096 1.368.345-.416c1.108-1.325 2.623-3.142 3.867-5.958 1.249-2.823 1.573-5.17 1.811-6.883.025-.18.049-.356.074-.523l-2.076-.916-1.022-.453c-1.268-.56-1.858-2.012-1.319-3.234L22.9 3.014c.54-1.22 2.012-1.76 3.28-1.198l1.735.773-.022.047a7.738 7.738 0 0 1 1.731 1.417c.485.54.867 1.085 1.17 1.664 2.46 4.623 1.958 9.912-1.731 18.252-5.099 11.527-12.041 13.49-12.342 13.571a8.02 8.02 0 0 1-2.025.25 7.715 7.715 0 0 1-2.204-.325l-.018.035-1.744-.75c-1.267-.562-1.858-2.013-1.32-3.236z" fill="#EE3425"/></svg>