<svg width="79" height="40" fill="none" xmlns="http://www.w3.org/2000/svg"><path d="M60.22 38.916c0 .368.285.666.636.666h15.308c1.288 0 2.336-1.096 2.336-2.442v-1.675c0-1.346-1.048-2.441-2.336-2.441H45.157a.64.64 0 0 0-.23.045l-5.16 2.11a1.197 1.197 0 0 0 0 2.247l5.16 2.11a.646.646 0 0 0 .23.045h17.735c.351 0 .636-.298.636-.665 0-.367-.285-.665-.636-.665H45.795v.665H70.61v-.665h-9.753c-.351 0-.636.298-.636.665zM10.321.195L.722 10.228a.69.69 0 0 0-.186.47v17.786c0 1.07.833 1.941 1.857 1.941h39.674c1.056 0 1.916-.898 1.916-2.002V1.967C43.983.882 43.139 0 42.1 0h-31.33a.624.624 0 0 0-.45.195z" fill="#EE3425"/><path d="M8.307 4.221L4.735 7.855c-.625.635-.17 1.708.722 1.7l3.602-.03a1 1 0 0 0 .992-1.009l-.031-3.602c-.008-.891-1.089-1.328-1.713-.693z" fill="#fff"/><ellipse cx="20.983" cy="18.5" rx="7" ry="7" transform="rotate(-90 20.983 18.5)" fill="#fff"/><rect x="21.983" y="17.5" width="12" height="12" rx="1" transform="rotate(-90 21.983 17.5)" fill="#fff" stroke="#EE3425" stroke-width="2"/></svg>