<svg width="30" height="34" viewBox="0 0 30 34" fill="none" xmlns="http://www.w3.org/2000/svg">
<path d="M22.6336 7.65777L15.1217 0.145895C15.0307 0.0548516 14.9009 0 14.7695 0H1.4535C0.652043 0 0 0.652043 0 1.45343V32.501C0 33.3276 0.67243 34 1.49899 34H21.3071C22.1191 34 22.7795 33.3395 22.7795 32.5276V8.00992C22.7795 7.88275 22.7297 7.75386 22.6336 7.65777ZM15.2675 1.70053C15.5227 1.95573 20.8238 7.25681 21.0789 7.51181H15.7248C15.4727 7.51181 15.2675 7.30668 15.2675 7.05454V1.70053ZM21.7832 32.5276C21.7833 32.7901 21.5697 33.0038 21.307 33.0038H1.49899C1.22181 33.0038 0.996227 32.7783 0.996227 32.5011V1.45343C0.996227 1.20129 1.20136 0.99616 1.4535 0.99616H14.2714V7.0546C14.2714 7.85606 14.9235 8.50804 15.7249 8.50804H21.7833V32.5276H21.7832Z" fill="#EE3425"/>
<path d="M29.1371 17.3731C29.4122 17.3731 29.6352 17.1502 29.6352 16.8751C29.6352 16.2702 29.6352 5.36889 29.6352 4.89601C29.6352 3.8879 28.8151 3.06778 27.8069 3.06778H26.5533C25.5453 3.06778 24.7251 3.8879 24.7251 4.89601C24.7251 5.19989 24.7251 28.6089 24.7251 29.1592C24.7251 29.1599 24.7252 29.1605 24.7252 29.1611C24.7254 29.2164 24.7367 29.2829 24.7593 29.3406C24.9104 29.727 26.1914 33.0019 26.3388 33.379C26.6592 34.1979 27.7016 34.1965 28.0213 33.379C28.1686 33.0024 29.4516 29.7224 29.6008 29.3406C29.6209 29.2894 29.6347 29.2221 29.635 29.1611C29.635 29.1605 29.635 29.1599 29.635 29.1592V19.1994C29.635 18.9243 29.412 18.7013 29.137 18.7013C28.8619 18.7013 28.6389 18.9243 28.6389 19.1994V28.6611H27.6781V9.24336H28.6389V16.875C28.639 17.1502 28.8621 17.3731 29.1371 17.3731ZM25.7213 4.89594C25.7213 4.43721 26.0946 4.06387 26.5534 4.06387H27.807C28.2657 4.06387 28.6391 4.43714 28.6391 4.89594V5.85033H25.7213V4.89594ZM27.1802 32.795L26.6705 31.4919H27.6899L27.1802 32.795ZM28.4075 29.6572L28.0795 30.4958H26.2808L25.9528 29.6572C26.8411 29.6572 27.5193 29.6572 28.4075 29.6572ZM25.7213 28.6611V9.24336H26.6822V28.6611H25.7213ZM25.7213 8.24727V6.84649H28.6391V8.2472C28.1386 8.24727 26.4205 8.24727 25.7213 8.24727Z" fill="#EE3425"/>
<path d="M17.9217 15.8962H14.5162C14.2636 13.1022 11.9096 10.9054 9.05095 10.9054C6.02435 10.9054 3.56207 13.3677 3.56207 16.3943C3.56207 19.253 5.75899 21.6069 8.5529 21.8595V25.265C8.5529 25.7136 8.9178 26.0785 9.36644 26.0785H12.2967C12.5717 26.0785 12.7947 25.8555 12.7947 25.5805C12.7947 25.3054 12.5717 25.0824 12.2967 25.0824H9.54906V21.8596C12.1788 21.6218 14.2784 19.5222 14.5162 16.8924H17.7391V25.0824H14.621C14.3459 25.0824 14.1229 25.3054 14.1229 25.5804C14.1229 25.8555 14.3459 26.0785 14.621 26.0785H17.9217C18.3703 26.0785 18.7352 25.7136 18.7352 25.2649V16.7097C18.7352 16.2611 18.3703 15.8962 17.9217 15.8962ZM9.54899 20.8588V16.8924H13.5154C13.2849 18.9724 11.6291 20.6282 9.54899 20.8588ZM9.36638 15.8962C8.9178 15.8962 8.55283 16.2611 8.55283 16.7097V20.8588C6.30917 20.6102 4.55817 18.7033 4.55817 16.3944C4.55817 13.9171 6.5736 11.9016 9.05088 11.9016C11.3598 11.9016 13.2667 13.6526 13.5154 15.8963H9.36638V15.8962Z" fill="#EE3425"/>
</svg>
