<svg width="27" height="36" viewBox="0 0 27 36" fill="none" xmlns="http://www.w3.org/2000/svg">
<path d="M12 3.30469C12 4.177 12.7097 4.88672 13.582 4.88672C14.4543 4.88672 15.1641 4.177 15.1641 3.30469C15.1641 2.43237 14.4543 1.72266 13.582 1.72266C12.7097 1.72266 12 2.43237 12 3.30469ZM14.1094 3.30469C14.1094 3.59555 13.8729 3.83203 13.582 3.83203C13.2912 3.83203 13.0547 3.59555 13.0547 3.30469C13.0547 3.01382 13.2912 2.77734 13.582 2.77734C13.8729 2.77734 14.1094 3.01382 14.1094 3.30469Z" fill="#EE3425"/>
<path d="M12 3.30469C12 4.177 12.7097 4.88672 13.582 4.88672C14.4543 4.88672 15.1641 4.177 15.1641 3.30469C15.1641 2.43237 14.4543 1.72266 13.582 1.72266C12.7097 1.72266 12 2.43237 12 3.30469ZM14.1094 3.30469C14.1094 3.59555 13.8729 3.83203 13.582 3.83203C13.2912 3.83203 13.0547 3.59555 13.0547 3.30469C13.0547 3.01382 13.2912 2.77734 13.582 2.77734C13.8729 2.77734 14.1094 3.01382 14.1094 3.30469Z" fill="#EE3425"/>
<path d="M12 3.30469C12 4.177 12.7097 4.88672 13.582 4.88672C14.4543 4.88672 15.1641 4.177 15.1641 3.30469C15.1641 2.43237 14.4543 1.72266 13.582 1.72266C12.7097 1.72266 12 2.43237 12 3.30469ZM14.1094 3.30469C14.1094 3.59555 13.8729 3.83203 13.582 3.83203C13.2912 3.83203 13.0547 3.59555 13.0547 3.30469C13.0547 3.01382 13.2912 2.77734 13.582 2.77734C13.8729 2.77734 14.1094 3.01382 14.1094 3.30469Z" fill="#EE3425"/>
<path d="M26.1211 0H0.527344C0.236206 0 0 0.235931 0 0.527344V31.4767C0 31.7678 0.236206 32.004 0.527344 32.004C0.818481 32.004 1.05469 31.7678 1.05469 31.4767V6.67969H22.3066C22.5978 6.67969 22.834 6.44376 22.834 6.15234C22.834 5.86093 22.5978 5.625 22.3066 5.625H1.05469V1.05469H25.5938V5.625H24.5742C24.2831 5.625 24.0469 5.86093 24.0469 6.15234C24.0469 6.44376 24.2831 6.67969 24.5742 6.67969H25.5938V34.9453H1.05469V33.7852C1.05469 33.4937 0.818481 33.2578 0.527344 33.2578C0.236206 33.2578 0 33.4937 0 33.7852V35.4727C0 35.7641 0.236206 36 0.527344 36H26.1211C26.4122 36 26.6484 35.7641 26.6484 35.4727V0.527344C26.6484 0.235931 26.4122 0 26.1211 0Z" fill="#EE3425"/>
<path d="M13.293 22.9219C16.763 22.9219 19.5859 20.0989 19.5859 16.6289C19.5859 13.1589 16.763 10.3359 13.293 10.3359C9.82294 10.3359 7 13.1589 7 16.6289C7 20.0989 9.82294 22.9219 13.293 22.9219ZM13.293 11.3906C16.1813 11.3906 18.5312 13.7406 18.5312 16.6289C18.5312 19.5172 16.1813 21.8672 13.293 21.8672C10.4047 21.8672 8.05469 19.5172 8.05469 16.6289C8.05469 13.7406 10.4047 11.3906 13.293 11.3906Z" fill="#EE3425"/>
<path d="M4.60535 15.1175C4.32162 15.5484 4 16.0367 4 16.6289C4 17.2211 4.32162 17.7094 4.60535 18.1404C4.77618 18.3999 4.93741 18.6449 4.99454 18.8589C5.05606 19.0893 5.03931 19.3922 5.02145 19.713C4.99316 20.2198 4.9613 20.7941 5.24722 21.2882C5.53726 21.7895 6.05472 22.0496 6.51147 22.2792C6.79465 22.4214 7.06244 22.556 7.22586 22.7195C7.38928 22.8826 7.52359 23.1504 7.66614 23.4338C7.89548 23.8903 8.15558 24.4081 8.65683 24.6981C8.74307 24.7478 8.83151 24.7874 8.92188 24.8198V33.7852C8.92188 33.9755 9.0246 34.1513 9.19049 34.2447C9.35638 34.338 9.55991 34.3347 9.7225 34.2361L13.3164 32.0576L16.91 34.2361C16.9941 34.287 17.0888 34.3125 17.1836 34.3125C17.2729 34.3125 17.3618 34.29 17.4423 34.2447C17.6082 34.1513 17.7109 33.9755 17.7109 33.7852V27.5713C17.7109 27.2799 17.4747 27.0439 17.1836 27.0439C16.8925 27.0439 16.6562 27.2799 16.6562 27.5713V32.8488L15.6016 32.2094V24.9387C15.8243 24.8925 16.1045 24.9074 16.4005 24.9239C16.4843 24.9285 16.5697 24.9332 16.6562 24.9365V25.2949C16.6562 25.5863 16.8925 25.8223 17.1836 25.8223C17.4747 25.8223 17.7109 25.5863 17.7109 25.2949V24.8198C17.801 24.7876 17.8897 24.7478 17.976 24.6981C18.4772 24.4081 18.7373 23.8906 18.9667 23.4338C19.1089 23.1507 19.2435 22.8829 19.407 22.7195C19.5701 22.5563 19.8379 22.4217 20.1213 22.2792C20.5781 22.0498 21.0956 21.7897 21.3856 21.2885C21.6715 20.7941 21.6396 20.2198 21.6114 19.713C21.5935 19.3922 21.5768 19.0893 21.6383 18.8589C21.6954 18.6449 21.8566 18.3999 22.0275 18.1406C22.3112 17.7094 22.6328 17.2211 22.6328 16.6289C22.6328 16.0367 22.3112 15.5484 22.0275 15.1175C21.8566 14.8579 21.6954 14.6129 21.6383 14.3992C21.5768 14.1688 21.5935 13.8656 21.6114 13.5448C21.6396 13.0383 21.6715 12.464 21.3856 11.9696C21.0956 11.4684 20.5781 11.2083 20.1213 10.9789C19.8382 10.8364 19.5704 10.7018 19.407 10.5384C19.2435 10.3752 19.1092 10.1074 18.9667 9.82397C18.7373 9.36749 18.4772 8.84976 17.976 8.55972C17.4816 8.2738 16.9073 8.30594 16.4005 8.33395C16.0797 8.35181 15.7768 8.36884 15.5464 8.30704C15.3324 8.24991 15.0874 8.08868 14.8279 7.91785C14.3969 7.63412 13.9086 7.3125 13.3164 7.3125C12.7242 7.3125 12.2359 7.63412 11.805 7.91785C11.5454 8.08868 11.3004 8.24991 11.0865 8.30704C10.856 8.36856 10.5528 8.35181 10.2323 8.33395C9.72552 8.30566 9.15121 8.2738 8.65683 8.55972C8.15558 8.84976 7.89548 9.36722 7.66614 9.82397C7.52386 10.1071 7.38928 10.3749 7.22586 10.5384C7.06271 10.7015 6.79492 10.8361 6.51147 10.9786C6.05472 11.208 5.53726 11.4681 5.24722 11.9693C4.9613 12.4637 4.99316 13.038 5.02145 13.5448C5.03931 13.8656 5.05606 14.1685 4.99454 14.399C4.93741 14.6129 4.77618 14.8579 4.60535 15.1175ZM9.97656 24.9365C10.0631 24.9332 10.1485 24.9285 10.2323 24.9239C10.5284 24.9074 10.8085 24.8925 11.0312 24.9387V32.2094L9.97656 32.8488V24.9365ZM13.0431 30.99L12.0859 31.57V25.5212C12.4468 25.7451 12.8492 25.9453 13.3164 25.9453C13.7836 25.9453 14.186 25.7451 14.5469 25.5212V31.57L13.5897 30.99C13.4216 30.8883 13.2112 30.8883 13.0431 30.99ZM5.48618 15.6973C5.69574 15.3792 5.91217 15.0504 6.01352 14.6714C6.11871 14.2781 6.09619 13.8755 6.07449 13.4863C6.05252 13.0919 6.03192 12.7194 6.16019 12.4975C6.29257 12.269 6.62903 12.1001 6.98499 11.921C7.33078 11.7474 7.68811 11.5678 7.97156 11.2841C8.25528 11.0006 8.43491 10.643 8.60849 10.2975C8.78757 9.94125 8.95648 9.6048 9.185 9.47269C9.40692 9.34442 9.77936 9.3653 10.1735 9.38699C10.563 9.40869 10.9656 9.43121 11.3589 9.32602C11.7377 9.22467 12.0667 9.00824 12.3848 8.79868C12.722 8.57675 13.0404 8.36719 13.3164 8.36719C13.5924 8.36719 13.9108 8.57675 14.248 8.79868C14.5661 9.00824 14.8949 9.22467 15.2739 9.32602C15.6672 9.43121 16.0699 9.40869 16.459 9.38699C16.8535 9.3653 17.2259 9.34442 17.4475 9.47269C17.6761 9.6048 17.8452 9.94125 18.024 10.2975C18.1979 10.643 18.3775 11.0006 18.661 11.2841C18.9447 11.5678 19.3023 11.7474 19.6478 11.9213C20.0041 12.1001 20.3405 12.269 20.4726 12.4975C20.6009 12.7194 20.5803 13.0919 20.5583 13.486C20.5366 13.8755 20.5141 14.2781 20.6193 14.6714C20.7206 15.0504 20.9371 15.3792 21.1466 15.6973C21.3686 16.0345 21.5781 16.3529 21.5781 16.6289C21.5781 16.9049 21.3686 17.2233 21.1466 17.5605C20.9371 17.8786 20.7206 18.2074 20.6193 18.5864C20.5141 18.9797 20.5366 19.3824 20.5583 19.7715C20.5803 20.166 20.6009 20.5384 20.4726 20.7603C20.3402 20.9888 20.0038 21.1577 19.6478 21.3368C19.302 21.5104 18.9447 21.69 18.6613 21.9738C18.3775 22.2572 18.1979 22.6148 18.0243 22.9603C17.8452 23.3166 17.6763 23.653 17.4478 23.7851C17.2259 23.9137 16.8535 23.8928 16.4593 23.8708C16.0699 23.8491 15.6672 23.8266 15.2739 23.9318C15.1176 23.9735 14.9704 24.0356 14.8287 24.1078C14.8259 24.1092 14.8232 24.1106 14.8204 24.112C14.621 24.2144 14.4323 24.3377 14.248 24.4591C13.9108 24.6811 13.5924 24.8906 13.3164 24.8906C13.0404 24.8906 12.722 24.6811 12.3848 24.4591C12.2005 24.3377 12.0118 24.2144 11.8127 24.112C11.8099 24.1106 11.8072 24.1092 11.8044 24.1078C11.6624 24.0353 11.5152 23.9735 11.3589 23.9318C11.1296 23.8705 10.8972 23.8527 10.666 23.8527C10.5006 23.8527 10.3361 23.8618 10.1738 23.8708C9.77936 23.8928 9.40692 23.9137 9.18527 23.7851C8.95676 23.653 8.78757 23.3166 8.60876 22.9603C8.43491 22.6148 8.25528 22.2572 7.97183 21.9738C7.68811 21.69 7.33051 21.5104 6.98499 21.3365C6.62875 21.1577 6.2923 20.9888 6.16019 20.7603C6.03192 20.5384 6.05252 20.166 6.07449 19.7718C6.09619 19.3824 6.11871 18.9797 6.01352 18.5864C5.91217 18.2074 5.69574 17.8786 5.48618 17.5605C5.26425 17.2233 5.05469 16.9049 5.05469 16.6289C5.05469 16.3529 5.26425 16.0345 5.48618 15.6973Z" fill="#EE3425"/>
<path d="M10.1982 16.9656L12.7036 18.9687C12.8005 19.0462 12.917 19.0841 13.0326 19.0841C13.1782 19.0841 13.3229 19.0242 13.4268 18.9075L16.8594 15.0515C17.0531 14.834 17.0339 14.5009 16.8163 14.3072C16.5988 14.1136 16.2656 14.1328 16.0717 14.3503L12.9717 17.8325L10.8565 16.1417C10.6291 15.9598 10.2973 15.9969 10.1155 16.2243C9.93367 16.4517 9.97047 16.7838 10.1982 16.9656Z" fill="#EE3425"/>
</svg>
