<svg width="355" height="261" fill="none" xmlns="http://www.w3.org/2000/svg"><path d="M100.747 208.885s41.081 10.077 92.059-2.32c50.977-12.397 88.673-41.633 88.673-41.633" stroke="#A19B9B" stroke-width="5" stroke-linecap="round" stroke-linejoin="round"/><path d="M120.363 232.416s34.141 8.163 78.114-2.531c43.973-10.693 72.496-34.096 72.496-34.096" stroke="#A19B9B" stroke-width="4" stroke-linecap="round" stroke-linejoin="round"/><path d="M159.308 248.673s11.36 7.529 43.659-.326c32.299-7.854 38.789-16.122 38.789-16.122" stroke="#A19B9B" stroke-width="3" stroke-linecap="round" stroke-linejoin="round"/><path fill-rule="evenodd" clip-rule="evenodd" d="M133.833 84.397c2.175-4.96 4.759-16.829.129-28.602-3.122-7.94-8.556-12.923-13.237-17.216-5.156-4.729-9.4-8.62-8.635-14.705 1.458-11.607 21.093-16.32 25.517-10.156.85 1.184 1.515 4.628 2.422 9.323 2.945 15.258 8.441 43.724 31.111 50.707 6.385-1.206 12.33-1.85 17.24-1.59 3.535.189 6.185 2.933 7.088 6.357 8.094 30.687 21.29 84.955 19.032 93.985-1.932 7.728-44.17 7.874-60.57 7.637-3.928-.056-7.395-2.469-8.897-6.099l-29.753-71.904c-2.095-5.062.258-10.84 5.362-12.83a449 449 0 0 1 13.191-4.907z" fill="#A19B9B"/><path d="M149.487 164.842l-22.782-55.76c-2.058-5.038.28-10.773 5.352-12.746 13.062-5.081 37.199-13.598 51.606-13.33 3.539.066 6.21 2.813 7.099 6.24 6.525 25.147 16.823 68.238 15.032 75.49-1.504 6.093-33.397 6.397-47.381 6.235-3.942-.046-7.435-2.479-8.926-6.129z" fill="#fff" stroke="#A19B9B" stroke-width="3"/><path d="M146.966 169.843l-26.225-63.796c-2.076-5.049.281-10.81 5.368-12.792 14.567-5.678 43.134-15.84 59.566-15.229 3.538.132 6.192 2.883 7.088 6.308 7.302 27.91 19.027 76.554 17.007 84.69-1.715 6.906-38.699 7.134-53.904 6.933-3.936-.052-7.404-2.474-8.9-6.114z" stroke="#fff" stroke-width="3"/><circle cx="152.5" cy="116.5" r="2.5" fill="#A19B9B"/><circle cx="176.5" cy="109.5" r="2.5" fill="#A19B9B"/><path d="M139 112c-.666-3.667 4-11 12-7M166 101c0-5 7.8-9 13-3" stroke="#A19B9B" stroke-width="2" stroke-linecap="round" stroke-linejoin="round"/><circle cx="127.5" cy="24.5" r="6.5" fill="#fff"/><path d="M147.621 111.458c-6.463.93-1.465 10.779 2.835 17.095.723 1.061 2.249 1.095 3.283.334 1.581-1.163 3.302-1.774 4.794-2.057 1.416-.27 2.562-1.702 2.027-3.041-2.266-5.677-6.845-13.208-12.939-12.331zM174.893 103.668c-6.208-1.188-4.785 9.46-2.857 16.684.332 1.247 1.775 1.781 3.009 1.401 1.756-.54 3.464-.566 4.884-.372 1.429.196 2.984-.785 2.916-2.225-.284-5.983-2.098-14.368-7.952-15.488z" stroke="#A19B9B" stroke-width="2"/><path d="M190.001 142c-1.66 13.375-18.665 18.542-29.179 10.159 6.059 1.447 18.878 2.441 21.678-5.159" stroke="#A19B9B" stroke-width="2" stroke-linecap="round" stroke-linejoin="round"/><path d="M27.09 146.977c.703-.198 1.372-.576 1.9-1.246.1-.127.122-.3.056-.449a.451.451 0 0 0-.372-.268c-2.278-.223-4.89-.597-5.874-.892l2.061-2.233a.812.812 0 0 0 .206-.686.843.843 0 0 0-.413-.597l-.864-.499a.838.838 0 0 0-1.02.135h-.001l-2.007 2.06c-.666-.755-2.178-2.714-2.063-4.852a.453.453 0 0 0-.286-.442.445.445 0 0 0-.507.128c-.057.069-1.149 1.437-.83 3.778-3.947-1.999-8.263-3.295-11.336 2.027-3.433 5.947-1.056 12.647 5.916 16.672s13.962 2.734 17.395-3.213c2.609-4.516.654-7.318-1.961-9.423zm-6.638-3.714a.452.452 0 0 0 .632-.006l2.302-2.363.767.443-2.39 2.588a.436.436 0 0 0-.1.414c.077.278.233.843 5.941 1.456-.448.285-.96.418-1.482.465l-.141.008c-.644.038-1.288-.058-1.808-.176l-.002-.001a9.696 9.696 0 0 1-.774-.215.736.736 0 0 0-.773.192.715.715 0 0 0-.143.767c.334.828.357 1.543.068 2.123-.206.414-.545.713-.868.919.664-2.959-1.558-4.739-1.583-4.759a.445.445 0 0 0-.052-.035c-2.267-1.309-4.319-.766-5.435-.259.175-.634.465-1.095.865-1.375.628-.439 1.43-.37 1.994-.233a.74.74 0 0 0 .728-.224.727.727 0 0 0 .135-.744 7.002 7.002 0 0 1-.198-.61c-.283-1.013-.266-1.85-.14-2.486.598 2.303 2.365 4.022 2.457 4.111zm3.754 15.152c-3.027 1.943-7.306 1.676-11.447-.714a.444.444 0 0 1-.167-.606.446.446 0 0 1 .609-.159c1.44.831 6.45 3.34 10.512.732a.453.453 0 0 1 .62.134c.136.206.08.48-.127.613zm1.523-1.266a.448.448 0 0 1-.632.015.441.441 0 0 1-.023-.627 9.049 9.049 0 0 0 1.258-1.706.445.445 0 0 1 .609-.158c.215.124.29.395.168.607a9.939 9.939 0 0 1-1.38 1.869zM339.77 76.894c.171-.71.167-1.479-.161-2.267a.437.437 0 0 0-.365-.267.452.452 0 0 0-.415.193c-1.305 1.88-2.906 3.979-3.643 4.694l-.944-2.888a.812.812 0 0 0-.499-.515.841.841 0 0 0-.722.07l-.857.511a.839.839 0 0 0-.38.957l.82 2.757c-.984.214-3.432.578-5.243-.565a.453.453 0 0 0-.525.034.446.446 0 0 0-.136.505c.033.083.695 1.704 2.895 2.567-3.671 2.47-6.907 5.607-3.758 10.886 3.517 5.897 10.526 7.088 17.439 2.964 6.914-4.124 9.196-10.856 5.678-16.754-2.671-4.48-6.07-4.14-9.184-2.882zm-6.479 3.984a.455.455 0 0 0 .267-.216.443.443 0 0 0 .036-.338l-.94-3.163.76-.453 1.094 3.349a.436.436 0 0 0 .313.288c.28.069.85.208 4.168-4.477.03.53-.103 1.043-.316 1.521l-.062.127c-.282.581-.679 1.097-1.036 1.493l-.002.001a8.097 8.097 0 0 1-.309.324 8.031 8.031 0 0 1-.256.247.739.739 0 0 0-.209.768.716.716 0 0 0 .6.5c.886.111 1.521.44 1.887.976.261.381.356.823.379 1.205-2.26-2.022-4.897-.95-4.927-.939a.4.4 0 0 0-.056.03c-2.248 1.34-2.774 3.396-2.876 4.617-.468-.462-.73-.94-.779-1.425-.077-.762.375-1.43.769-1.855a.729.729 0 1 0-.425-1.225 7.148 7.148 0 0 1-.629-.125c-1.022-.246-1.744-.67-2.238-1.09 2.302.601 4.665-.103 4.787-.14zm15.059 4.11c.22 3.591-2.099 7.197-6.204 9.646a.446.446 0 0 1-.612-.149.446.446 0 0 1 .159-.609c1.427-.851 6.061-4.003 5.765-8.821a.453.453 0 0 1 .419-.476.438.438 0 0 1 .473.41zm-.363-1.946a.446.446 0 0 1-.294.559.441.441 0 0 1-.559-.285 9.05 9.05 0 0 0-.876-1.93.445.445 0 0 1 .159-.61.445.445 0 0 1 .612.15 9.94 9.94 0 0 1 .958 2.116zM284.618 88.574a2.202 2.202 0 0 0 1.166-.764.266.266 0 0 0 .034-.276.276.276 0 0 0-.227-.164c-1.398-.136-3-.366-3.604-.547l1.265-1.37a.5.5 0 0 0 .126-.42.516.516 0 0 0-.254-.367l-.53-.306a.514.514 0 0 0-.626.083l-1.231 1.264c-.409-.464-1.336-1.665-1.266-2.977a.278.278 0 0 0-.175-.271.272.272 0 0 0-.311.078c-.035.042-.705.882-.509 2.318-2.422-1.227-5.07-2.021-6.955 1.244-2.106 3.648-.647 7.758 3.63 10.227 4.276 2.47 8.565 1.677 10.671-1.97 1.6-2.771.401-4.49-1.204-5.782zm-4.071-2.278a.277.277 0 0 0 .387-.004l1.413-1.45.47.272-1.466 1.588a.268.268 0 0 0-.061.254c.047.17.142.517 3.644.893a2.01 2.01 0 0 1-.909.286l-.087.004a4.044 4.044 0 0 1-1.109-.108h-.001a5.298 5.298 0 0 1-.475-.132.453.453 0 0 0-.474.117.439.439 0 0 0-.088.471c.205.508.22.947.042 1.303a1.472 1.472 0 0 1-.532.563c.407-1.815-.956-2.907-.971-2.919a.238.238 0 0 0-.033-.022c-1.39-.803-2.649-.47-3.333-.159.107-.389.284-.671.53-.843.385-.27.878-.227 1.223-.143a.454.454 0 0 0 .447-.137.445.445 0 0 0 .082-.457 4.865 4.865 0 0 1-.121-.374c-.173-.621-.163-1.135-.085-1.525.366 1.413 1.45 2.468 1.507 2.522zm2.303 9.295c-1.858 1.192-4.483 1.029-7.022-.438a.273.273 0 0 1-.103-.372.272.272 0 0 1 .373-.097c.883.51 3.957 2.049 6.449.449a.278.278 0 0 1 .38.082.269.269 0 0 1-.077.376zm.934-.777a.274.274 0 0 1-.388.01.27.27 0 0 1-.014-.385c.285-.3.544-.653.772-1.046a.272.272 0 0 1 .373-.097.272.272 0 0 1 .103.372c-.248.43-.533.816-.846 1.146zM67.488 209.602a2.977 2.977 0 0 0 1.578-1.034.362.362 0 0 0 .046-.372.375.375 0 0 0-.308-.223c-1.892-.185-4.06-.495-4.877-.741l1.711-1.853a.674.674 0 0 0 .171-.57.7.7 0 0 0-.343-.495l-.717-.414a.696.696 0 0 0-.847.112l-1.667 1.71c-.553-.627-1.807-2.253-1.712-4.028a.377.377 0 0 0-.238-.367.37.37 0 0 0-.42.106c-.048.057-.954 1.193-.69 3.137-3.276-1.66-6.859-2.736-9.41 1.683-2.85 4.936-.876 10.498 4.911 13.839 5.787 3.341 11.59 2.27 14.44-2.667 2.166-3.749.543-6.075-1.628-7.823zm-5.51-3.082a.374.374 0 0 0 .524-.005l1.912-1.962.636.368-1.984 2.148a.363.363 0 0 0-.083.344c.064.23.194.699 4.932 1.208-.372.237-.797.347-1.23.387l-.118.006a5.493 5.493 0 0 1-1.5-.146l-.002-.001a6.865 6.865 0 0 1-.642-.179.614.614 0 0 0-.642.16.594.594 0 0 0-.119.637c.278.687.297 1.28.056 1.762-.17.344-.452.592-.72.763.551-2.456-1.293-3.934-1.314-3.95a.336.336 0 0 0-.043-.03c-1.882-1.086-3.585-.635-4.512-.215.146-.526.386-.909.718-1.141.521-.365 1.188-.307 1.656-.194a.604.604 0 1 0 .716-.803 5.738 5.738 0 0 1-.164-.507c-.236-.84-.221-1.535-.116-2.063.496 1.912 1.962 3.339 2.039 3.413zm3.116 12.577c-2.513 1.614-6.065 1.392-9.502-.592a.369.369 0 0 1-.14-.503.37.37 0 0 1 .507-.132c1.194.69 5.354 2.772 8.726.607.17-.109.401-.059.514.112a.363.363 0 0 1-.105.508zm1.264-1.05a.37.37 0 0 1-.524.012.366.366 0 0 1-.02-.52 7.54 7.54 0 0 0 1.045-1.416.37.37 0 0 1 .506-.132.37.37 0 0 1 .139.504 8.269 8.269 0 0 1-1.146 1.552zM309.833 150.824c1.49-2.122 2.098-1.708 3.244-3.535.647-1.032 1.545-2.728 1.864-4.596l-.034-.066c-.869 1.86-3.075 4.3-5.04 4.882-2.396.617-4.511 2.61-5.371 5.388-1.265 4.085.664 8.31 4.318 9.356-2.101-2.732-1.23-8.227 1.019-11.429z" fill="#E5E5E5"/><path d="M305.868 153.322c.861-2.778 2.975-4.771 5.371-5.389.739-.218 1.512-.7 2.236-1.315.575-1.025 1.209-2.419 1.467-3.925l-.035-.066c-.869 1.86-3.075 4.3-5.04 4.881-2.396.618-4.511 2.611-5.371 5.389-1.265 4.085.664 8.31 4.318 9.356a4.665 4.665 0 0 1-.198-.279c-2.605-1.649-3.817-5.2-2.748-8.652z" fill="#D9D9D9"/><path d="M320.726 150.872c-1.293-1.591-1.733-4.85-1.399-6.876l-.104.055c-.781 1.714-.928 3.628-.978 4.839-.03.747-.043 1.449.226 2.147.013.004.153.571.156.585.03.132.057.264.079.389.831 4.674-2.029 10.491-5.469 11.612 3.606 1.219 7.604-1.17 8.874-5.27.756-2.44-.201-6.126-1.385-7.481z" fill="#E5E5E5"/><path d="M320.306 152.506a8.111 8.111 0 0 0-.079-.388c-.003-.014-.143-.581-.157-.585-.269-.698-.255-1.4-.225-2.148l.006-.145c-.601-1.659-.767-3.775-.524-5.244l-.104.055c-.781 1.715-.928 3.628-.978 4.839-.03.747-.043 1.45.226 2.147a8.405 8.405 0 0 1 .235.974c.831 4.674-2.029 10.491-5.469 11.612a6.025 6.025 0 0 0 2.056.317c3.231-1.46 5.806-6.969 5.013-11.434z" fill="#D9D9D9"/><path d="M317.922 135.674c.188.892.323 1.829.396 2.713.395-.654.856-1.339 1.385-2.013.403-2.046.598-4.593-.042-7.059-.055-.211-.357-.203-.402.01l-1.337 6.349z" fill="#E5E5E5"/><path d="M319.146 135.85l.889-4.22a12.95 12.95 0 0 0-.374-2.315c-.055-.21-.357-.203-.402.01l-1.337 6.349c.188.892.323 1.829.396 2.713.271-.448.573-.911.906-1.375a24.081 24.081 0 0 0-.084-.468 1.744 1.744 0 0 1 .006-.694z" fill="#D9D9D9"/><path d="M323.049 133.096c-2.132 1.396-3.701 3.415-4.778 5.201a9.55 9.55 0 0 1-.034 1.898l.97.301c.27-.547.101-.234 4.133-7.123.11-.187-.109-.396-.291-.277z" fill="#E5E5E5"/><path d="M319.639 138.115c.781-1.217 1.785-2.502 3.033-3.6l.668-1.141c.11-.188-.109-.397-.291-.278-2.132 1.397-3.701 3.415-4.778 5.201a9.55 9.55 0 0 1-.034 1.898l.971.301c.04-.081.07-.144.106-.213.035-.377.047-.755.037-1.134-.009-.366.09-.726.288-1.034z" fill="#D9D9D9"/><path d="M315.382 129.528c-.129-.175-.407-.056-.37.158 1.356 7.809 1.509 8.185 1.427 9.953l1.867.578c.31-2.633-.607-7.532-2.924-10.689z" fill="#E5E5E5"/><path d="M315.382 129.528c-.129-.175-.407-.056-.37.158 1.356 7.809 1.509 8.185 1.427 9.953l1.372.424c.076-1.636-.05-2.081-1.145-8.333a13.14 13.14 0 0 0-1.284-2.202z" fill="#D9D9D9"/><path d="M318.677 151.101a5.466 5.466 0 0 1-.363-2.19c.079-1.927.577-5.582 3.111-7.496a.184.184 0 0 0-.054-.324l-6.533-2.024a.185.185 0 0 0-.228.238c1.008 3.011-.646 6.307-1.671 7.941a5.464 5.464 0 0 1-1.537 1.602c-4.969 3.937-5.28 13.384-.607 14.832 2.627.813 5.71-1.442 7.279-5.146 1.789-4.223.603-7.433.603-7.433z" fill="#E5E5E5"/><path d="M312.807 149.283a5.477 5.477 0 0 0 1.537-1.602c1.024-1.634 2.679-4.93 1.67-7.942a.185.185 0 0 1 .228-.237l-1.404-.434a.184.184 0 0 0-.228.237c1.008 3.011-.646 6.307-1.671 7.941a5.46 5.46 0 0 1-1.536 1.602c-4.97 3.937-5.281 13.384-.608 14.832.236.073.476.121.718.145-3.941-2.124-3.418-10.81 1.294-14.542z" fill="#D9D9D9"/><path d="M66.692 103.271c.893-1.271 1.257-1.023 1.943-2.117.388-.619.926-1.635 1.117-2.754l-.02-.039c-.52 1.114-1.842 2.576-3.02 2.924-1.435.37-2.701 1.564-3.217 3.228-.758 2.447.398 4.978 2.587 5.605-1.259-1.637-.737-4.929.61-6.847z" fill="#E5E5E5"/><path d="M64.317 104.768c.516-1.664 1.782-2.858 3.218-3.228.442-.131.906-.42 1.339-.788.345-.614.724-1.45.879-2.352l-.02-.039c-.522 1.114-1.843 2.576-3.02 2.924-1.436.37-2.702 1.564-3.218 3.228-.758 2.447.398 4.978 2.587 5.605a2.844 2.844 0 0 1-.119-.167c-1.56-.988-2.286-3.115-1.646-5.183z" fill="#D9D9D9"/><path d="M73.218 103.3c-.775-.953-1.039-2.905-.839-4.119l-.062.033c-.468 1.027-.556 2.174-.585 2.899-.019.447-.026.868.135 1.286.008.003.092.342.094.35.017.079.033.159.047.233.497 2.8-1.216 6.285-3.277 6.956 2.16.73 4.556-.7 5.316-3.157.453-1.461-.12-3.669-.83-4.481z" fill="#E5E5E5"/><path d="M72.966 104.279a5.516 5.516 0 0 0-.047-.233 5.88 5.88 0 0 0-.094-.35c-.161-.418-.153-.839-.135-1.286l.004-.087c-.36-.994-.46-2.262-.315-3.142l-.062.033c-.468 1.027-.556 2.174-.585 2.899-.019.447-.026.868.135 1.286a5.913 5.913 0 0 1 .14.584c.498 2.799-1.215 6.284-3.276 6.955a3.6 3.6 0 0 0 1.232.19c1.936-.874 3.478-4.174 3.003-6.849z" fill="#D9D9D9"/><path d="M71.538 94.196c.112.534.193 1.096.237 1.625.236-.391.513-.802.83-1.206.241-1.225.358-2.751-.025-4.228-.033-.126-.214-.122-.241.006l-.801 3.803z" fill="#E5E5E5"/><path d="M72.271 94.301l.533-2.527a7.779 7.779 0 0 0-.224-1.387c-.033-.126-.214-.122-.241.006l-.801 3.803c.112.534.193 1.096.237 1.625.162-.268.343-.545.543-.823a14.298 14.298 0 0 0-.05-.28 1.054 1.054 0 0 1 .003-.417z" fill="#D9D9D9"/><path d="M74.61 92.652c-1.278.836-2.218 2.046-2.863 3.115.031.38.024.76-.02 1.138l.58.18c.163-.328.061-.14 2.476-4.267.066-.113-.065-.238-.174-.166z" fill="#E5E5E5"/><path d="M72.566 95.658c.468-.729 1.07-1.498 1.817-2.156l.4-.684c.066-.113-.065-.238-.174-.166-1.277.836-2.217 2.046-2.862 3.115.031.38.024.76-.02 1.138l.58.18.065-.128c.02-.226.028-.452.022-.68-.006-.218.054-.434.172-.619z" fill="#D9D9D9"/><path d="M70.016 90.514c-.077-.105-.244-.033-.221.095.812 4.678.904 4.903.855 5.962l1.118.346c.186-1.577-.363-4.511-1.752-6.403z" fill="#E5E5E5"/><path d="M70.016 90.514c-.077-.105-.244-.033-.221.095.812 4.678.904 4.903.855 5.962l.822.255c.045-.98-.03-1.247-.686-4.992a7.81 7.81 0 0 0-.77-1.32z" fill="#D9D9D9"/><path d="M71.99 103.437a3.268 3.268 0 0 1-.217-1.311c.047-1.155.346-3.344 1.863-4.49a.11.11 0 0 0-.032-.195l-3.913-1.212a.11.11 0 0 0-.137.142c.604 1.804-.387 3.778-1 4.757-.23.367-.54.697-.921.96-2.977 2.358-3.164 8.017-.364 8.884 1.573.488 3.42-.863 4.36-3.082 1.072-2.53.361-4.453.361-4.453z" fill="#E5E5E5"/><path d="M68.474 102.348c.382-.262.69-.593.92-.959.614-.979 1.605-2.954 1.001-4.758a.11.11 0 0 1 .137-.142l-.841-.26a.11.11 0 0 0-.137.142c.604 1.804-.387 3.778-1 4.757-.23.367-.54.698-.921.96-2.977 2.358-3.164 8.017-.364 8.884.141.044.285.073.43.088-2.361-1.273-2.048-6.476.775-8.712z" fill="#D9D9D9"/><path d="M301.088 19.55c2.088-.778 6.665-3.078 10.699-6 4.034-2.923 6.826-4.904 9.382-3.353.501.304.946.655 1.334 1.04.665-.872 1.466-1.72 2.11-2.06 1.247-.656 3.467 1.36 1.314 2.494-.839.442-1.247 1.019-1.895 1.84.823 1.99.652 4.22-.463 5.773-2.322 3.239-6.164 6.435-12.691 10.671-5.91 3.837-12.555 6.26-17.406 5.126-5.08-1.186-7.136-3.34-5.957-7.146 1.4-4.52 8.493-6.492 13.573-8.385z" fill="#E5E5E5"/><path d="M296.89 31.727c11.251-2.97 20.367-10.75 23.363-13.305.277-.237.516-.44.706-.598a.762.762 0 0 1 .973 1.173c-.182.15-.418.351-.69.584-1.639 1.398-4.69 4.001-8.823 6.678-5.091 3.297-10.185 5.633-15.14 6.941a.76.76 0 0 1-.931-.542.761.761 0 0 1 .542-.931zM293.88 28.81c14.334-4.274 23.468-11.97 26.47-14.498.182-.154.34-.287.474-.398a.762.762 0 0 1 .973 1.173c-.132.109-.287.24-.466.39-3.061 2.58-12.378 10.428-27.015 14.794a.76.76 0 0 1-.948-.512.761.761 0 0 1 .512-.948zM317.713 14.158c-2.629 2.064-8.784 6.898-17.369 9.958a.76.76 0 0 1-.974-.462.763.763 0 0 1 .462-.974c8.351-2.976 14.37-7.702 16.939-9.72l.253-.199a.761.761 0 1 1 .94 1.2l-.251.197z" fill="#fff"/><path d="M288.788 186.845c-.775-.792-2.745-2.407-4.888-3.65-2.143-1.243-3.607-2.112-3.418-3.586.037-.29.106-.562.203-.817-.531-.126-1.078-.319-1.362-.543-.55-.434-.083-1.85.867-1.1.371.292.716.361 1.219.489.738-.775 1.786-1.148 2.718-.956 1.941.402 4.169 1.502 7.413 3.613 2.937 1.91 5.38 4.441 5.844 6.874.487 2.548-.076 3.918-2.044 4.151-2.337.277-4.665-2.549-6.552-4.475z" fill="#E5E5E5"/><path d="M295.17 186.294c-3.623-4.514-8.999-7.085-10.766-7.93a48.354 48.354 0 0 1-.414-.2.379.379 0 1 1 .337-.679c.105.052.244.118.404.195.967.462 2.766 1.323 4.817 2.661 2.527 1.647 4.617 3.491 6.213 5.478a.381.381 0 0 1-.059.533.378.378 0 0 1-.532-.058zM294.452 188.25c-4.838-5.65-10.18-8.247-11.935-9.1l-.277-.135a.38.38 0 0 1 .337-.679l.271.132c1.791.871 7.24 3.52 12.18 9.29a.38.38 0 0 1-.576.492zM282.98 180.379c1.469.778 4.909 2.599 8.033 5.882a.377.377 0 0 1-.013.536.38.38 0 0 1-.536-.013c-3.039-3.194-6.402-4.975-7.839-5.735l-.141-.075a.38.38 0 0 1 .355-.669l.141.074z" fill="#fff"/><path d="M74.152 160.114c1.215-.231 3.932-1.063 6.411-2.287 2.479-1.223 4.19-2.047 5.444-.96.246.213.457.446.633.692.445-.414.962-.804 1.346-.929.743-.244 1.77 1.065.487 1.485-.5.164-.777.442-1.208.831.265 1.164-.036 2.369-.79 3.115-1.572 1.555-3.971 2.946-7.936 4.656-3.59 1.549-7.45 2.256-9.998 1.185-2.668-1.122-3.593-2.491-2.594-4.464 1.187-2.342 5.25-2.76 8.205-3.324z" fill="#E5E5E5"/><path d="M70.725 166.385c6.431-.578 12.142-3.984 14.018-5.104.174-.103.324-.193.442-.261a.422.422 0 1 1 .423.732c-.113.065-.26.153-.432.255-1.026.613-2.937 1.753-5.447 2.832-3.092 1.33-6.096 2.134-8.928 2.389a.424.424 0 0 1-.076-.843zM69.35 164.51c8.238-1.005 13.95-4.364 15.828-5.468l.297-.174a.423.423 0 0 1 .422.732l-.29.171c-1.915 1.126-7.742 4.552-16.155 5.578a.422.422 0 0 1-.102-.839zM83.749 158.712c-1.63.885-5.447 2.956-10.428 3.831a.423.423 0 0 1-.146-.833c4.845-.851 8.577-2.876 10.17-3.741l.157-.085a.423.423 0 0 1 .402.743l-.155.085z" fill="#fff"/><path d="M41.564 16.605c-.012-1.023-.282-2.064-.997-3.022a.613.613 0 0 0-.587-.238.634.634 0 0 0-.497.405c-1.126 3.001-2.58 6.4-3.336 7.623l-2.272-3.598a1.14 1.14 0 0 0-.854-.527 1.18 1.18 0 0 0-.957.343l-.988.988c-.383.383-.46.97-.188 1.43l2.06 3.461c-1.263.628-4.461 1.962-7.312 1.032a.634.634 0 0 0-.701.227.623.623 0 0 0-.011.732c.072.102 1.527 2.075 4.81 2.492-4.135 4.614-7.452 9.983-1.367 16.069 6.8 6.8 16.724 6.011 24.695-1.96 7.972-7.971 8.76-17.895 1.96-24.695-5.164-5.165-9.662-3.537-13.458-.762zm-7.43 7.633a.637.637 0 0 0 .288-.385.623.623 0 0 0-.066-.472l-2.362-3.97.877-.877 2.634 4.17a.61.61 0 0 0 .524.285c.403-.003 1.224-.009 4.122-7.508.223.71.218 1.45.093 2.173l-.04.195c-.183.884-.546 1.72-.895 2.381 0 0 0 .002-.002.003a12.904 12.904 0 0 1-.571.968c-.224.344-.232.77-.02 1.115.209.34.587.521.986.472 1.241-.152 2.216.075 2.897.678.484.429.766.996.928 1.507-3.763-1.97-6.976.39-7.011.416a.597.597 0 0 0-.067.058c-2.592 2.592-2.6 5.564-2.32 7.257-.794-.467-1.313-1.025-1.546-1.668-.367-1.008.018-2.07.407-2.782.184-.34.17-.747-.039-1.065a1.02 1.02 0 0 0-.958-.452 12.617 12.617 0 0 1-.897.046c-1.472.016-2.598-.31-3.413-.713 3.332.027 6.298-1.74 6.452-1.832zm21.857.413c1.53 4.8-.38 10.492-5.114 15.225a.623.623 0 0 1-.882.008.623.623 0 0 1 .007-.882c1.646-1.646 6.855-7.515 4.8-13.955a.634.634 0 0 1 .406-.789.614.614 0 0 1 .783.393zm-1.16-2.518a.626.626 0 0 1-.21.86.618.618 0 0 1-.856-.196 12.704 12.704 0 0 0-1.852-2.32.623.623 0 0 1 .008-.881.623.623 0 0 1 .881-.007 13.937 13.937 0 0 1 2.028 2.544z" fill="#E5E5E5"/></svg>