<svg width="80" height="76" fill="none" xmlns="http://www.w3.org/2000/svg"><rect y="36" width="80" height="40" rx="2" fill="#EE3425"/><rect x="6" y="43" width="26" height="26" rx="2" fill="#fff"/><rect x="49" y="43" width="26" height="26" rx="2" fill="#fff"/><path d="M27.578 58.469c.647 0 1.172-.525 1.172-1.172v-3.125a1.172 1.172 0 1 0-2.344 0v3.125c0 .648.525 1.172 1.172 1.172zM52.422 58.469c.647 0 1.172-.525 1.172-1.172v-3.125a1.172 1.172 0 1 0-2.344 0v3.125c0 .648.525 1.172 1.172 1.172z" fill="#EE3425"/><rect width="80" height="26" rx="2" fill="#EE3425"/><path d="M73.99 3H7.01A.999.999 0 0 0 6 3.987v18.026c0 .545.453.987 1.01.987h55.053a.999.999 0 0 0 1.01-.987.999.999 0 0 0-1.01-.987h-9.39V4.974h20.305v16.052H59.492a.999.999 0 0 0-1.01.987c0 .545.452.987 1.01.987h14.497A.999.999 0 0 0 75 22.013V3.987A.999.999 0 0 0 73.99 3zM8.02 4.974h20.305v16.052H8.021V4.974zm22.327 0h20.305v16.052H30.348V4.974z" fill="#fff"/><path d="M16 13.172c0 .647.524 1.172 1.172 1.172h3.125a1.172 1.172 0 1 0 0-2.344h-3.125c-.648 0-1.172.525-1.172 1.172zM38 13.172c0 .647.524 1.172 1.172 1.172h3.125a1.172 1.172 0 1 0 0-2.344h-3.125c-.648 0-1.172.525-1.172 1.172zM59.438 13.172c0 .647.524 1.172 1.171 1.172h3.125a1.172 1.172 0 1 0 0-2.344H60.61c-.647 0-1.172.525-1.172 1.172z" fill="#fff"/></svg>