<svg width="70" height="80" viewBox="0 0 70 80" fill="none" xmlns="http://www.w3.org/2000/svg">
<path d="M67.8741 13.8142C56.8671 10.7983 45.7954 6.10218 35.8559 0.233758C35.3279 -0.07796 34.6727 -0.07796 34.1449 0.233758C23.9187 6.27078 13.4453 10.7128 2.12576 13.8142C1.39452 14.0144 0.887642 14.679 0.887642 15.4373V32.632C0.887642 50.3387 9.05622 62.0593 15.909 68.7735C23.2865 76.0024 31.8802 80 35.0004 80C38.1202 80 46.714 76.0024 54.0914 68.7735C60.9441 62.0594 69.1122 50.3388 69.1122 32.632V15.4372C69.1122 14.679 68.6053 14.0144 67.8741 13.8142ZM65.7466 32.6318C65.7466 49.1698 58.1277 60.1064 51.7358 66.3692C44.481 73.4778 36.7243 76.6341 35.0004 76.6341C33.2765 76.6341 25.5193 73.4778 18.2643 66.3692C11.8726 60.1063 4.25342 49.1698 4.25342 32.6318V16.7147C15.0781 13.6412 25.159 9.35202 35.0007 3.63281C44.5966 9.2003 55.1805 13.7028 65.7466 16.714V32.6318Z" fill="#EE3425"/>
<path d="M20.084 16.5264C19.7434 15.6615 18.7664 15.2367 17.9014 15.5775C14.8951 16.762 11.8095 17.8523 8.73029 18.8182C8.02857 19.0386 7.55107 19.6886 7.55107 20.4239V26.9225C7.55107 27.8518 8.30466 28.6053 9.23388 28.6053C10.1631 28.6053 10.9167 27.8518 10.9167 26.9225V21.6537C13.679 20.76 16.4384 19.7714 19.1351 18.7087C20 18.3682 20.4248 17.3912 20.084 16.5264Z" fill="#EE3425"/>
<path d="M23.2807 16.8456C23.5065 16.8456 23.7357 16.8001 23.9556 16.7042L23.9865 16.6907C24.8379 16.3176 25.2213 15.3265 24.8482 14.4754C24.4748 13.624 23.4781 13.2389 22.6276 13.6117L22.6004 13.6234C21.7485 13.9954 21.3639 14.9857 21.7359 15.8373C22.012 16.4695 22.6315 16.8456 23.2807 16.8456Z" fill="#EE3425"/>
<path d="M55.0502 54.2628C54.2726 53.7546 53.2297 53.9732 52.7208 54.7511C51.3341 56.8736 49.7072 58.9061 47.8848 60.7916C46.386 62.3419 44.7619 63.7869 43.0577 65.0861C42.3188 65.6495 42.1766 66.7055 42.7399 67.4447C43.0713 67.8789 43.5724 68.1073 44.0793 68.1073C44.4352 68.1073 44.7938 67.995 45.0985 67.7625C46.9368 66.3608 48.6883 64.8025 50.3043 63.131C52.2747 61.0928 54.0357 58.8928 55.5385 56.5921C56.0471 55.8139 55.8282 54.7711 55.0502 54.2628Z" fill="#EE3425"/>
<path d="M39.1496 67.7253L39.053 67.7822C38.2488 68.248 37.974 69.2774 38.4396 70.0816C38.7516 70.6207 39.3165 70.9216 39.8976 70.9216C40.1835 70.9216 40.4738 70.8486 40.739 70.6947L40.8504 70.6293C41.6524 70.1596 41.9218 69.1288 41.4521 68.3268C40.9821 67.525 39.9512 67.2561 39.1496 67.7253Z" fill="#EE3425"/>
<path d="M23.5295 36.5654C22.4962 35.532 21.122 34.9632 19.6604 34.9632C18.1989 34.9632 16.8245 35.5321 15.7907 36.5654C13.6575 38.6991 13.6575 42.171 15.7907 44.3046L25.7276 54.2411C26.761 55.2743 28.1352 55.8432 29.597 55.8432C31.0587 55.8432 32.4329 55.2743 33.4665 54.2408L54.2104 33.4968C56.3435 31.3626 56.3435 27.8912 54.21 25.7582C53.1766 24.7248 51.8024 24.156 50.3405 24.156C48.8788 24.156 47.5046 24.7249 46.471 25.7582L29.5968 42.6324L23.5295 36.5654ZM48.851 28.1382C49.2486 27.7406 49.7779 27.5217 50.3407 27.5217C50.9038 27.5217 51.4325 27.7406 51.8305 28.1382C52.6516 28.9593 52.6516 30.2959 51.8302 31.1173L31.0866 51.861C30.689 52.2586 30.1598 52.4775 29.597 52.4775C29.0342 52.4775 28.5049 52.2586 28.1071 51.861L18.1706 41.9248C17.3492 41.1033 17.3492 39.7668 18.1703 38.9457C18.5681 38.548 19.0973 38.3288 19.6603 38.3288C20.2232 38.3288 20.7521 38.5477 21.1498 38.9454L28.4068 46.2026C28.7226 46.518 29.1504 46.6954 29.5968 46.6954C30.0432 46.6954 30.471 46.5182 30.7865 46.2026L48.851 28.1382Z" fill="#EE3425"/>
</svg>
