<svg width="70" height="80" fill="none" xmlns="http://www.w3.org/2000/svg"><path d="M67.874 13.814C56.867 10.798 45.795 6.102 35.856.234a1.682 1.682 0 0 0-1.711 0c-10.226 6.037-20.7 10.479-32.02 13.58-.73.2-1.237.865-1.237 1.623v17.195c0 17.707 8.168 29.427 15.021 36.142C23.286 76.001 31.88 80 35 80c3.12 0 11.714-3.998 19.091-11.227 6.853-6.714 15.021-18.434 15.021-36.141V15.437c0-.758-.507-1.423-1.238-1.623z" fill="#EE3425"/><path d="M23.53 36.566a5.435 5.435 0 0 0-3.87-1.603 5.438 5.438 0 0 0-3.87 1.602 5.48 5.48 0 0 0 0 7.74l9.938 9.936a5.437 5.437 0 0 0 3.869 1.602 5.437 5.437 0 0 0 3.87-1.602L54.21 33.497a5.479 5.479 0 0 0 0-7.739 5.436 5.436 0 0 0-3.87-1.602 5.437 5.437 0 0 0-3.869 1.602L29.597 42.633l-6.068-6.068z" fill="#fff"/></svg>