<svg width="74" height="80" viewBox="0 0 74 80" fill="none" xmlns="http://www.w3.org/2000/svg">
<path d="M66.7643 54.5116H66.7595C64.459 54.5104 63.1602 53.3165 62.4168 50.5224C61.6569 47.6647 61.6313 43.5204 61.6044 39.1326C61.5721 33.8165 61.5355 27.7911 60.2141 22.4023C60.0578 21.7651 59.4139 21.3751 58.7767 21.5313C58.1401 21.6876 57.7501 22.3309 57.9057 22.9681C59.1612 28.0853 59.1966 33.9623 59.2283 39.1473C59.2564 43.6907 59.2821 47.9821 60.1201 51.1327C60.4844 52.5029 61.0069 53.629 61.6819 54.5116H12.1734C12.8484 53.629 13.3709 52.5029 13.7353 51.1327C14.5733 47.9821 14.5995 43.6907 14.627 39.1473C14.6691 32.2106 14.7173 24.3487 17.5554 18.3319C20.75 11.5588 27.0867 8.26597 36.928 8.26597C42.3326 8.26597 46.7552 9.2816 50.0725 11.2854C52.9491 13.0224 55.0609 15.4913 56.5288 18.833C56.7924 19.4336 57.4937 19.707 58.0943 19.4427C58.6949 19.179 58.9683 18.4784 58.7047 17.8772C57.0561 14.1247 54.5653 11.2225 51.3011 9.25108C49.2174 7.99254 46.7705 7.08495 43.9836 6.53197C43.7029 2.88391 40.6468 0 36.928 0C33.2091 0 30.1525 2.88452 29.8735 6.53319C27.2149 7.05992 24.8644 7.90892 22.8472 9.07774C19.6013 10.9588 17.0977 13.7317 15.4058 17.3181C12.3443 23.8092 12.2942 31.95 12.2509 39.1326C12.224 43.5204 12.199 47.6647 11.4385 50.5224C10.6951 53.3165 9.39628 54.5104 7.09587 54.5116H7.09099C3.25006 54.5116 0.125061 57.6366 0.125061 61.4781C0.125061 65.3191 3.25006 68.4441 7.09099 68.4441H14.6111C15.2672 68.4441 15.7995 67.9118 15.7995 67.2557C15.7995 66.5996 15.2672 66.068 14.6111 66.068H7.09099C4.56048 66.068 2.50116 64.0087 2.50116 61.4781C2.50116 58.9476 4.55987 56.8889 7.09038 56.8883H7.09099H7.09526H66.7595H66.7637H66.7649C69.2949 56.8889 71.3536 58.9476 71.3536 61.4781C71.3536 64.0087 69.2942 66.068 66.7637 66.068H19.3639C18.7078 66.068 18.1762 66.5996 18.1762 67.2557C18.1762 67.9118 18.7078 68.4441 19.3639 68.4441H24.2412C24.8424 74.9162 30.3014 79.9998 36.928 79.9998C43.5539 79.9998 49.0129 74.9162 49.6141 68.4441H66.7643C70.6053 68.4441 73.7303 65.3191 73.7303 61.4781C73.7303 57.6366 70.6053 54.5116 66.7643 54.5116ZM36.928 2.37609C39.2034 2.37609 41.1064 4.00146 41.5379 6.15172C40.0792 5.9796 38.5436 5.88988 36.928 5.88988C35.3124 5.88988 33.7767 5.97899 32.3186 6.15111C32.7501 4.00085 34.6526 2.37609 36.928 2.37609ZM36.928 77.6237C31.613 77.6237 27.2216 73.6028 26.6301 68.4441H47.2252C46.6338 73.6028 42.2423 77.6237 36.928 77.6237Z" fill="#EE3425"/>
<path d="M56.0051 7.45667C56.0264 7.46827 58.1419 8.67554 60.2232 11.4801C63.0113 15.2362 64.4243 19.9286 64.4243 25.4272C64.4243 26.0834 64.9565 26.6156 65.6126 26.6156C66.2687 26.6156 66.801 26.0834 66.801 25.4272C66.801 17.8577 64.2161 12.8333 62.0475 9.95179C59.6647 6.78528 57.2593 5.43457 57.158 5.37842C56.5849 5.06226 55.8659 5.26978 55.5473 5.84107C55.2287 6.41297 55.4344 7.13562 56.0051 7.45667Z" fill="#EE3425"/>
<path d="M64.9693 7.89245C65.1603 8.01757 69.6519 11.0321 69.6519 18.6163C69.6519 19.2725 70.1841 19.8041 70.8403 19.8041C71.4964 19.8041 72.028 19.2725 72.028 18.6163C72.028 9.67102 66.4866 6.04126 66.2504 5.89111C65.6993 5.54016 64.9705 5.70251 64.6165 6.25244C64.2625 6.80175 64.4218 7.5354 64.9693 7.89245Z" fill="#EE3425"/>
<path d="M8.24213 26.6156C8.89826 26.6156 9.43048 26.0834 9.43048 25.4272C9.43048 19.9286 10.8441 15.2362 13.6315 11.4801C15.7 8.69323 17.8027 7.48351 17.8491 7.45666C18.421 7.13867 18.6285 6.41723 18.3117 5.84411C17.9937 5.26977 17.2711 5.06164 16.6967 5.37841C16.5954 5.43456 14.19 6.78527 11.8072 9.95178C9.63922 12.8332 7.05438 17.8577 7.05438 25.4272C7.05438 26.0834 7.586 26.6156 8.24213 26.6156Z" fill="#EE3425"/>
<path d="M3.01508 19.8041C3.6712 19.8041 4.20282 19.2725 4.20282 18.6163C4.20282 11.0382 8.68768 8.02185 8.88544 7.89307C9.43475 7.53967 9.59589 6.80786 9.24493 6.2561C8.89276 5.70251 8.15851 5.53955 7.60431 5.89172C7.36871 6.04187 1.82672 9.67102 1.82672 18.6163C1.82672 19.2725 2.35895 19.8041 3.01508 19.8041Z" fill="#EE3425"/>
</svg>
